<svg width="24" height="27" viewBox="0 0 24 27" fill="none" xmlns="http://www.w3.org/2000/svg">
<path d="M17.1779 14.2063C17.8675 14.1703 18.5571 14.1356 19.2467 14.1017C19.2861 14.0999 19.3257 14.0988 19.3653 14.0978C19.4827 14.0978 19.5999 14.0883 19.7158 14.0691C20.0842 13.9979 20.2704 13.7908 20.227 13.5023C20.2007 13.3285 20.0536 13.0441 19.8559 12.9842C19.4514 12.8546 19.0319 12.7783 18.6078 12.7571C17.8637 12.7321 17.066 12.7354 16.098 12.7677C13.439 12.8562 10.7801 12.9479 8.12122 13.0429C6.68774 13.0931 5.25421 13.1432 3.82067 13.1931C3.65425 13.1991 3.48438 13.1977 3.26965 13.1961L3.13761 13.1952C3.24437 13.0857 3.34753 12.9803 3.44707 12.8787C3.78869 12.5292 4.0839 12.2274 4.37875 11.9131C4.65848 11.6149 4.93717 11.307 5.20658 11.0094C5.39158 10.805 5.57709 10.601 5.76311 10.3973C6.06381 10.0706 6.36675 9.7461 6.66745 9.42399L7.0667 8.99641C7.08312 8.9787 7.09344 8.95618 7.09631 8.93211C7.0992 8.90804 7.09454 8.88397 7.08278 8.86282L6.8791 8.49971C6.8693 8.482 6.85485 8.46721 6.83732 8.45707C6.81995 8.44676 6.80001 8.44143 6.77989 8.44143C6.76665 8.44143 6.75342 8.44366 6.74104 8.44813C6.70407 8.46154 6.66711 8.47254 6.63152 8.48303C6.54556 8.50332 6.46354 8.53753 6.38859 8.58395C4.39027 9.97447 2.47568 11.482 0.654626 13.0989C0.475479 13.2544 0.316787 13.4318 0.181995 13.6271C-0.114924 14.0651 -0.0454639 14.5397 0.368023 14.8949C0.473585 14.981 0.585855 15.0587 0.703798 15.1269L1.35987 15.5329C2.68526 16.3537 4.05535 17.2022 5.40722 18.0314C5.60614 18.1711 5.83171 18.2683 6.06966 18.317C6.17987 18.3245 6.29042 18.306 6.39237 18.2631C6.49432 18.2201 6.58493 18.1537 6.65679 18.0694C6.76494 17.912 6.79348 17.5798 6.67244 17.4174C6.46303 17.1331 6.20755 16.886 5.91682 16.6863C5.4423 16.3661 4.95196 16.0528 4.47864 15.75C4.0722 15.4903 3.65201 15.2217 3.24403 14.9502C3.16632 14.8984 3.08276 14.8527 3.0023 14.8086C2.80355 14.7196 2.62904 14.5844 2.49305 14.4142C2.6244 14.4264 2.75421 14.4394 2.88281 14.4525C3.29509 14.5017 3.70978 14.5288 4.12516 14.5333L4.45165 14.5308C7.06658 14.5103 9.77063 14.4891 12.4293 14.4154C14.0129 14.3713 15.6219 14.2875 17.1779 14.2063Z" fill="white"/>
<path d="M13.5896 26.4506C13.9224 26.4984 18.1633 26.7469 20.6499 26.7603C21.0016 26.7418 21.3937 26.712 21.7728 26.6832C22.0511 26.6621 22.3263 26.6411 22.5814 26.6249C23.2365 26.5834 23.6454 26.2101 23.7639 25.5448C23.8302 25.1271 23.8695 24.7056 23.8815 24.2829C24.0407 20.8872 24.0049 17.4354 23.9703 14.097C23.962 13.3032 23.9546 12.5093 23.9481 11.7154C23.9352 9.93848 23.897 8.07022 23.8311 6.00382C23.801 5.06303 23.7504 4.10797 23.7014 3.1842C23.6707 2.60429 23.64 2.02438 23.6139 1.44429C23.5806 0.713774 23.2953 0.331408 22.6585 0.166357C22.2986 0.0865823 21.9314 0.0442869 21.5628 0.040333L21.3987 0.0325968C20.9439 0.0104182 20.4235 0.000101402 19.8657 0.000101451C17.491 0.000101659 14.4517 0.176156 13.0677 0.265042C12.8924 0.276389 12.7278 0.354102 12.6078 0.482703C12.4876 0.611478 12.421 0.781514 12.4214 0.95774C12.4219 1.13414 12.4894 1.30348 12.6102 1.43157C12.7309 1.55966 12.8958 1.63668 13.0713 1.647C13.9889 1.70116 15.6789 1.80276 16.6873 1.8736C17.6313 1.94048 18.5919 1.98243 19.5211 2.02266C20.055 2.0457 20.5889 2.06874 21.1225 2.09676C21.2947 2.10897 21.4661 2.13046 21.6359 2.16106C21.6934 2.17034 21.7513 2.17963 21.81 2.1884C21.8177 2.23654 21.8256 2.28261 21.8332 2.32697C21.8568 2.44973 21.8735 2.57386 21.8831 2.69851C21.9203 3.37264 21.9635 4.05777 22.0051 4.72038C22.1049 6.29798 22.2077 7.92941 22.2367 9.53401C22.2859 12.2534 22.2811 15.0198 22.2754 17.6953C22.2738 18.5526 22.2727 19.41 22.2722 20.2675C22.2722 21.5564 22.2458 22.8366 22.2201 23.919C22.2136 24.1902 22.185 24.4595 22.152 24.7716C22.1386 24.8968 22.1248 25.0276 22.1116 25.1668C21.7247 25.193 20.9247 25.2122 19.9342 25.2357C17.3977 25.296 13.9237 25.3788 13.2804 25.6759C13.2653 25.6829 13.252 25.6931 13.2413 25.7057C13.2305 25.7184 13.2227 25.7332 13.2182 25.7492C13.1878 25.8314 13.1754 25.9193 13.182 26.0068C13.1886 26.0942 13.214 26.1792 13.2564 26.2559C13.2945 26.3107 13.344 26.3565 13.4016 26.3901C13.4591 26.4237 13.5233 26.4444 13.5896 26.4506Z" fill="white"/>
</svg>
