<svg width="12" height="14" viewBox="0 0 12 14" fill="none" xmlns="http://www.w3.org/2000/svg">
<path d="M8.99179 13.018C8.69179 13.018 8.19979 12.586 7.51579 11.722C6.81979 10.87 6.08179 9.802 5.30179 8.518C5.14579 8.722 4.94779 8.98 4.70779 9.292C4.47979 9.604 4.24579 9.916 4.00579 10.228C3.76579 10.54 3.54979 10.816 3.35779 11.056C3.17779 11.296 3.06379 11.446 3.01579 11.506C2.87179 11.674 2.69779 11.878 2.49379 12.118C2.30179 12.346 2.09179 12.55 1.86379 12.73C1.63579 12.91 1.40779 13 1.17979 13C1.02379 13 0.843789 12.928 0.639789 12.784C0.435789 12.64 0.333789 12.508 0.333789 12.388C0.333789 12.268 0.363789 12.166 0.423789 12.082C0.483789 11.998 0.597789 11.872 0.765789 11.704C1.73779 10.648 2.98579 9.124 4.50979 7.132C2.88979 4.216 2.07979 2.14 2.07979 0.903999C2.07979 0.579999 2.16379 0.417999 2.33179 0.417999C2.57179 0.417999 2.80579 0.459999 3.03379 0.543999C3.27379 0.627999 3.47179 0.735999 3.62779 0.868C3.79579 0.987999 3.87979 1.126 3.87979 1.282C3.87979 2.386 4.41979 3.892 5.49979 5.8C7.19179 3.46 8.31979 1.99 8.88379 1.39C9.43579 0.789999 9.87979 0.489999 10.2158 0.489999C10.3118 0.489999 10.4318 0.555999 10.5758 0.688C10.7318 0.808 10.8638 0.946 10.9718 1.102C11.0918 1.246 11.1518 1.354 11.1518 1.426C11.1518 1.63 11.0618 1.78 10.8818 1.876C10.7018 1.96 10.4858 2.128 10.2338 2.38C9.78979 2.812 8.48779 4.42 6.32779 7.204C6.80779 7.996 7.28779 8.74 7.76779 9.436C8.25979 10.132 8.66179 10.738 8.97379 11.254C9.29779 11.77 9.45979 12.16 9.45979 12.424C9.45979 12.616 9.41179 12.766 9.31579 12.874C9.21979 12.97 9.11179 13.018 8.99179 13.018Z" fill="white"/>
</svg>
