<svg width="17" height="17" viewBox="0 0 17 17" fill="none" xmlns="http://www.w3.org/2000/svg">
<path d="M7.04297 7.27734C6.98307 7.3112 6.89453 7.32812 6.77734 7.32812C6.66016 7.32812 6.60156 7.27865 6.60156 7.17969C6.60156 6.98698 6.70573 6.67318 6.91406 6.23828C7.125 5.80078 7.29557 5.54688 7.42578 5.47656C7.55859 5.40365 7.80599 5.33984 8.16797 5.28516C8.52995 5.23047 8.89323 5.20312 9.25781 5.20312C9.625 5.20312 9.96354 5.23177 10.2734 5.28906C10.5833 5.34375 10.8646 5.42839 11.1172 5.54297C11.3724 5.65755 11.5729 5.8151 11.7188 6.01562C11.8646 6.21615 11.9375 6.4388 11.9375 6.68359C11.9375 6.92839 11.888 7.14974 11.7891 7.34766C11.6927 7.54557 11.5612 7.72266 11.3945 7.87891C11.2305 8.03255 11.0456 8.17839 10.8398 8.31641C10.6367 8.45443 10.4193 8.58854 10.1875 8.71875C9.95573 8.84896 9.73568 8.97396 9.52734 9.09375C9.02995 9.3724 8.67188 9.64583 8.45312 9.91406C8.42188 9.95052 8.36589 9.96875 8.28516 9.96875C8.20703 9.96875 8.07812 9.90365 7.89844 9.77344C7.72135 9.64323 7.63281 9.51302 7.63281 9.38281C7.63281 9.2526 7.70443 9.09766 7.84766 8.91797C7.99349 8.73568 8.16927 8.55599 8.375 8.37891C8.58073 8.19922 8.78516 8.02344 8.98828 7.85156C9.48307 7.43229 9.73047 7.14193 9.73047 6.98047C9.73047 6.89453 9.6849 6.82552 9.59375 6.77344C9.50521 6.71875 9.38021 6.69141 9.21875 6.69141C8.72135 6.69141 8.3125 6.74219 7.99219 6.84375C7.67448 6.94271 7.35807 7.08724 7.04297 7.27734ZM8.97266 11.668C8.82161 11.8372 8.6224 11.9714 8.375 12.0703C8.13021 12.1693 7.86198 12.2188 7.57031 12.2188C7.28125 12.2188 7.03646 12.1445 6.83594 11.9961C6.63542 11.8477 6.53516 11.668 6.53516 11.457C6.53516 11.2461 6.61198 11.0547 6.76562 10.8828C6.92188 10.7083 7.1224 10.5716 7.36719 10.4727C7.61198 10.3737 7.87891 10.3242 8.16797 10.3242C8.45964 10.3242 8.70443 10.401 8.90234 10.5547C9.10286 10.7057 9.20312 10.8867 9.20312 11.0977C9.20312 11.306 9.1263 11.4961 8.97266 11.668Z" fill="white"/>
<circle cx="8.5" cy="8.5" r="8" stroke="white"/>
</svg>
