<svg width="26" height="26" viewBox="0 0 26 26" fill="none" xmlns="http://www.w3.org/2000/svg">
<path d="M13 9C12.6044 9 12.2178 8.8827 11.8889 8.66294C11.56 8.44318 11.3036 8.13082 11.1522 7.76537C11.0009 7.39992 10.9613 6.99778 11.0384 6.60982C11.1156 6.22186 11.3061 5.86549 11.5858 5.58579C11.8655 5.30608 12.2219 5.1156 12.6098 5.03843C12.9978 4.96126 13.3999 5.00087 13.7654 5.15224C14.1308 5.30362 14.4432 5.55996 14.6629 5.88886C14.8827 6.21776 15 6.60444 15 7C15 7.53043 14.7893 8.03914 14.4142 8.41421C14.0391 8.78929 13.5304 9 13 9Z" fill="white"/>
<path d="M13 26C10.4288 26 7.91543 25.2376 5.77759 23.8091C3.63975 22.3807 1.97351 20.3503 0.989572 17.9749C0.0056327 15.5995 -0.251811 12.9856 0.249797 10.4638C0.751405 7.94208 1.98953 5.6257 3.80762 3.80762C5.6257 1.98953 7.94208 0.751405 10.4638 0.249797C12.9856 -0.251811 15.5995 0.0056327 17.9749 0.989572C20.3503 1.97351 22.3807 3.63975 23.8091 5.77759C25.2376 7.91543 26 10.4288 26 13C26 16.4478 24.6304 19.7544 22.1924 22.1924C19.7544 24.6304 16.4478 26 13 26ZM13 2.00001C10.8244 2.00001 8.69767 2.64514 6.88873 3.85384C5.07979 5.06254 3.66989 6.7805 2.83733 8.79049C2.00477 10.8005 1.78693 13.0122 2.21137 15.146C2.63581 17.2798 3.68345 19.2398 5.22183 20.7782C6.76021 22.3166 8.72022 23.3642 10.854 23.7886C12.9878 24.2131 15.1995 23.9952 17.2095 23.1627C19.2195 22.3301 20.9375 20.9202 22.1462 19.1113C23.3549 17.3023 24 15.1756 24 13C24 10.0826 22.8411 7.28473 20.7782 5.22183C18.7153 3.15893 15.9174 2.00001 13 2.00001Z" fill="white"/>
<path d="M13 21C12.4696 21 11.9609 20.7893 11.5858 20.4142C11.2107 20.0391 11 19.5304 11 19V13C11 12.4696 11.2107 11.9609 11.5858 11.5858C11.9609 11.2107 12.4696 11 13 11C13.5304 11 14.0391 11.2107 14.4142 11.5858C14.7893 11.9609 15 12.4696 15 13V19C15 19.5304 14.7893 20.0391 14.4142 20.4142C14.0391 20.7893 13.5304 21 13 21Z" fill="white"/>
</svg>
