<svg width="37" height="33" viewBox="0 0 37 33" fill="none" xmlns="http://www.w3.org/2000/svg">
<path d="M1.6554 10.8365C1.7786 10.8232 1.90109 10.8071 2.02429 10.7927C1.85403 12.4044 1.76172 14.0269 1.68736 15.6433C1.57817 18.0607 1.20209 20.6617 1.40001 23.074C1.57745 25.2393 3.38242 25.4077 5.16511 25.4279C6.37345 25.4411 9.76427 25.4429 10.2025 25.3244C13.996 27.9914 18.4525 29.504 22.1961 32.2587C23.0754 32.906 24.343 32.031 24.3243 31.0367C24.1297 21.0711 23.6886 11.098 23.903 1.12852C23.921 0.286557 22.9274 -0.292469 22.2076 0.155809C18.3778 2.53549 14.5024 4.82394 10.9011 7.53157C10.5678 7.11454 10.0556 6.84586 9.25242 6.83221C6.75492 6.78911 4.15361 7.23271 1.6554 7.38358C-0.582403 7.51899 -0.52098 11.0833 1.6554 10.8365ZM21.5388 3.10374C21.1289 11.5187 21.5639 19.9232 21.5244 28.3409C18.3315 26.2917 11.7546 22.2684 11.7011 22.2324C11.7208 20.9048 11.7294 19.578 11.7251 18.2504C11.7176 15.7669 11.6598 13.283 11.5624 10.8017C11.5376 10.1688 11.5297 9.49278 11.4292 8.88071C14.6935 6.78731 18.139 4.97193 21.5388 3.10374ZM8.4805 10.0531C8.60407 11.2184 8.62598 16.6983 8.64825 18.2504C8.65723 18.8714 8.50026 21.7364 8.62849 22.4156C7.96865 22.2874 4.15074 22.4612 4.10871 22.4573C4.08968 22.125 3.61913 12.8035 3.39607 10.6296C4.17588 10.5373 8.13244 10.0855 8.4805 10.0531Z" fill="#7B4600"/>
<path d="M27 14C27.9672 14.2939 27.9794 15.0732 27.9794 15.7576C27.9794 15.899 28.039 16.1434 27.9554 16.2727C27.874 16.3987 27.7625 16.5097 27.6464 16.6195C27.4756 16.781 27.2156 16.8636 27.0392 17" stroke="#7B4600" stroke-width="2" stroke-linecap="round"/>
<path d="M29.2109 11.0558C29.2734 10.8329 29.7726 11.347 29.832 11.3854C30.072 11.5405 30.2643 11.6902 30.4472 11.898C30.7127 12.1996 30.8354 12.5134 31.0566 12.8342C31.1549 12.9769 31.2275 13.159 31.3202 13.3154C31.3962 13.4435 31.5839 13.6205 31.5839 13.7652C31.5839 14.0722 31.7421 14.3353 31.7421 14.644C31.7421 14.8826 31.8549 15.1562 31.9266 15.3867C32.0725 15.8555 31.9747 16.5338 31.8593 16.9977C31.7297 17.5183 31.3468 17.8891 31.1357 18.3707C31.0592 18.5452 30.8278 18.6853 30.7109 18.8493C30.6147 18.9842 30.4468 19.1321 30.3183 19.2468C29.9608 19.566 29.4219 19.7489 29 20" stroke="#7B4600" stroke-width="2" stroke-linecap="round"/>
<path d="M32.5297 8.02315C32.5495 7.86349 33.5996 8.57508 33.7068 8.76933C33.8453 9.02014 34.0836 9.20786 34.1953 9.47405C34.2767 9.66799 34.4152 9.8489 34.4778 10.0485C34.5355 10.2323 34.5741 10.4854 34.7015 10.6318C34.8934 10.8525 34.9926 11.0805 35.0782 11.3602C35.1791 11.6903 35.4461 11.9734 35.552 12.3107C35.8044 13.1152 35.9607 13.9916 35.9728 14.8453C35.9853 15.7274 36.0953 16.6276 35.7609 17.4688C35.573 17.9414 35.5278 18.4622 35.3489 18.9375C35.2797 19.1212 35.2705 19.3059 35.1782 19.4823C35.0649 19.6989 34.8965 19.8937 34.7545 20.0923C34.616 20.2858 34.4548 20.4734 34.3042 20.6578C34.1566 20.8386 34.0785 21.0515 33.9069 21.2145C33.6048 21.5016 33.424 21.9203 33.0624 22.1443C32.6726 22.3856 32.3703 22.7516 32 23" stroke="#7B4600" stroke-width="2" stroke-linecap="round"/>
</svg>
