<svg width="38" height="33" viewBox="0 0 38 33" fill="none" xmlns="http://www.w3.org/2000/svg">
<path d="M1.6554 10.8365C1.7786 10.8232 1.90109 10.8071 2.02429 10.7927C1.85403 12.4044 1.76172 14.0269 1.68736 15.6433C1.57817 18.0607 1.20209 20.6617 1.40001 23.074C1.57745 25.2393 3.38242 25.4077 5.16511 25.4279C6.37345 25.4411 9.76427 25.4429 10.2025 25.3244C13.996 27.9914 18.4525 29.504 22.1961 32.2587C23.0754 32.906 24.343 32.031 24.3243 31.0367C24.1297 21.0711 23.6886 11.098 23.903 1.12852C23.921 0.286557 22.9274 -0.292469 22.2076 0.155809C18.3778 2.53549 14.5024 4.82394 10.9011 7.53157C10.5678 7.11454 10.0556 6.84586 9.25242 6.83221C6.75492 6.78911 4.15361 7.23271 1.6554 7.38358C-0.582403 7.51899 -0.52098 11.0833 1.6554 10.8365ZM21.5388 3.10374C21.1289 11.5187 21.5639 19.9232 21.5244 28.3409C18.3315 26.2917 11.7546 22.2684 11.7011 22.2324C11.7208 20.9048 11.7294 19.578 11.7251 18.2504C11.7176 15.7669 11.6598 13.283 11.5624 10.8017C11.5376 10.1688 11.5297 9.49278 11.4292 8.88071C14.6935 6.78731 18.139 4.97193 21.5388 3.10374ZM8.4805 10.0531C8.60407 11.2184 8.62598 16.6983 8.64825 18.2504C8.65723 18.8714 8.50026 21.7364 8.62849 22.4156C7.96865 22.2874 4.15074 22.4612 4.10871 22.4573C4.08968 22.125 3.61913 12.8035 3.39607 10.6296C4.17588 10.5373 8.13244 10.0855 8.4805 10.0531Z" fill="#7B4600"/>
<path d="M35.6673 22.784C35.5953 22.748 35.5413 22.694 35.5053 22.622C35.4813 22.562 35.4573 22.508 35.4333 22.46C35.4093 22.412 35.3913 22.364 35.3793 22.316C35.3673 22.244 35.3193 22.19 35.2353 22.154C35.2113 22.154 35.1993 22.16 35.1993 22.172V22.19C35.2113 22.202 35.2173 22.214 35.2173 22.226C35.2293 22.238 35.2413 22.25 35.2533 22.262C35.2533 22.262 35.2533 22.268 35.2533 22.28C35.2533 22.28 35.2473 22.28 35.2353 22.28C35.2353 22.292 35.2233 22.298 35.1993 22.298C34.9713 22.238 34.8153 22.124 34.7313 21.956C34.6833 21.86 34.6413 21.8 34.6053 21.776C34.5813 21.752 34.5573 21.728 34.5333 21.704C34.5093 21.68 34.4853 21.656 34.4613 21.632L34.4073 21.506V21.452C34.3953 21.296 34.3173 21.158 34.1733 21.038C34.1013 20.99 34.0593 20.936 34.0473 20.876L33.9573 20.714C33.9213 20.666 33.9093 20.618 33.9213 20.57V20.516C33.8973 20.456 33.8613 20.42 33.8133 20.408C33.7533 20.408 33.6993 20.372 33.6513 20.3C33.6033 20.252 33.5853 20.204 33.5973 20.156C33.6213 20.084 33.6033 20.012 33.5433 19.94L33.4353 19.778C33.3153 19.61 33.2013 19.436 33.0933 19.256C32.9853 19.076 32.8713 18.902 32.7513 18.734L32.3913 18.248C32.3913 18.236 32.3853 18.23 32.3733 18.23C32.3733 18.218 32.3733 18.212 32.3733 18.212C32.3253 18.212 32.3013 18.212 32.3013 18.212C32.2773 18.212 32.2533 18.224 32.2293 18.248C32.0613 18.404 31.8933 18.566 31.7253 18.734C31.5573 18.89 31.3953 19.052 31.2393 19.22C31.1913 19.268 31.1433 19.328 31.0953 19.4C31.0593 19.46 31.0113 19.52 30.9513 19.58L30.7893 19.76C30.7293 19.82 30.6633 19.886 30.5913 19.958C30.5313 20.018 30.4713 20.078 30.4113 20.138C30.3273 20.222 30.2433 20.318 30.1593 20.426C30.0873 20.522 30.0093 20.618 29.9253 20.714C29.8773 20.786 29.8413 20.87 29.8173 20.966C29.7693 21.194 29.6433 21.392 29.4393 21.56C29.3193 21.632 29.2473 21.758 29.2233 21.938C29.2113 21.974 29.2053 22.01 29.2053 22.046C29.2053 22.082 29.1933 22.118 29.1693 22.154C29.1573 22.214 29.1153 22.262 29.0433 22.298C29.0073 22.31 28.9713 22.328 28.9353 22.352C28.8993 22.364 28.8573 22.364 28.8093 22.352C28.6773 22.328 28.5933 22.262 28.5573 22.154C28.5453 22.118 28.5333 22.082 28.5213 22.046C28.5093 22.01 28.4973 21.974 28.4853 21.938C28.4733 21.866 28.4493 21.8 28.4133 21.74C28.3773 21.668 28.3413 21.602 28.3053 21.542C28.2453 21.458 28.1853 21.362 28.1253 21.254C27.9693 21.014 27.9513 20.744 28.0713 20.444C28.1313 20.276 28.2273 20.126 28.3593 19.994C28.4553 19.91 28.5393 19.82 28.6113 19.724C28.6953 19.628 28.7793 19.532 28.8633 19.436C29.2113 19.04 29.5233 18.638 29.7993 18.23L29.8533 18.158C29.9733 17.978 30.0993 17.804 30.2313 17.636C30.3753 17.468 30.5133 17.306 30.6453 17.15C30.7053 17.078 30.7653 17.006 30.8253 16.934C30.8973 16.85 30.9573 16.772 31.0053 16.7C31.0413 16.664 31.0833 16.61 31.1313 16.538C31.1553 16.49 31.1553 16.448 31.1313 16.412C31.1193 16.388 31.1073 16.364 31.0953 16.34C31.0833 16.304 31.0713 16.28 31.0593 16.268L30.8433 15.944C30.8073 15.884 30.7653 15.824 30.7173 15.764C30.6813 15.692 30.6393 15.626 30.5913 15.566C30.5313 15.494 30.4713 15.416 30.4113 15.332C30.3273 15.236 30.2493 15.134 30.1773 15.026C30.1053 14.918 30.0213 14.816 29.9253 14.72C29.8773 14.66 29.8293 14.606 29.7813 14.558C29.7333 14.498 29.6853 14.444 29.6373 14.396C29.6133 14.36 29.5833 14.324 29.5473 14.288C29.5233 14.252 29.4933 14.222 29.4573 14.198C29.3253 14.09 29.2053 13.97 29.0973 13.838C29.0493 13.778 28.9953 13.718 28.9353 13.658C28.8873 13.598 28.8453 13.538 28.8093 13.478C28.7973 13.442 28.7733 13.418 28.7373 13.406C28.6893 13.358 28.6473 13.298 28.6113 13.226L28.5573 13.154C28.4853 13.082 28.4253 12.998 28.3773 12.902C28.3293 12.806 28.2753 12.716 28.2153 12.632C28.0953 12.416 28.0593 12.182 28.1073 11.93C28.1073 11.906 28.1193 11.87 28.1433 11.822C28.2033 11.738 28.2693 11.666 28.3413 11.606C28.4133 11.534 28.5033 11.492 28.6113 11.48C28.7073 11.468 28.8213 11.432 28.9533 11.372C28.9893 11.348 29.0433 11.324 29.1153 11.3C29.1753 11.3 29.2293 11.306 29.2773 11.318C29.3253 11.318 29.3733 11.336 29.4213 11.372C29.4813 11.396 29.5353 11.426 29.5833 11.462C29.6433 11.498 29.6973 11.546 29.7453 11.606C29.9373 11.762 30.1173 11.954 30.2853 12.182C30.3213 12.218 30.3633 12.272 30.4113 12.344C30.7353 12.704 31.0413 13.112 31.3293 13.568C31.4133 13.688 31.4913 13.814 31.5633 13.946C31.6473 14.078 31.7313 14.21 31.8153 14.342C31.8753 14.45 31.9413 14.558 32.0133 14.666C32.0853 14.774 32.1573 14.882 32.2293 14.99C32.2293 14.99 32.2413 15.002 32.2653 15.026H32.3193C32.3313 15.014 32.3373 15.008 32.3373 15.008C32.3493 14.996 32.3613 14.984 32.3733 14.972L32.7153 14.54C32.7873 14.444 32.8593 14.348 32.9313 14.252C33.0153 14.156 33.0873 14.066 33.1473 13.982C33.3153 13.778 33.4833 13.574 33.6513 13.37C33.8313 13.166 34.0113 12.968 34.1913 12.776C34.3233 12.644 34.4433 12.506 34.5513 12.362C34.6713 12.218 34.7913 12.08 34.9113 11.948C34.9593 11.888 35.0013 11.834 35.0373 11.786C35.0853 11.738 35.1333 11.69 35.1813 11.642C35.3613 11.45 35.6013 11.342 35.9013 11.318C36.0573 11.33 36.2013 11.36 36.3333 11.408C36.4653 11.444 36.5853 11.528 36.6933 11.66C36.7773 11.756 36.8493 11.876 36.9093 12.02C36.9933 12.152 37.0233 12.284 36.9993 12.416C36.9993 12.716 36.9333 12.974 36.8013 13.19C36.7773 13.238 36.7473 13.286 36.7113 13.334C36.6873 13.37 36.6573 13.412 36.6213 13.46C36.5733 13.508 36.5313 13.568 36.4953 13.64C36.4593 13.7 36.4113 13.76 36.3513 13.82C36.2553 13.916 36.1593 13.988 36.0633 14.036C35.9913 14.084 35.9193 14.132 35.8473 14.18C35.7753 14.216 35.7033 14.264 35.6313 14.324L35.5593 14.378C35.4993 14.402 35.4393 14.432 35.3793 14.468C35.3193 14.504 35.2593 14.534 35.1993 14.558C35.1153 14.594 35.0433 14.648 34.9833 14.72C34.8993 14.804 34.8213 14.882 34.7493 14.954C34.6773 15.026 34.6053 15.104 34.5333 15.188C34.4493 15.284 34.3593 15.38 34.2633 15.476C34.1673 15.572 34.0713 15.668 33.9753 15.764C33.8913 15.836 33.8133 15.914 33.7413 15.998C33.6693 16.07 33.5973 16.148 33.5253 16.232C33.5133 16.268 33.4893 16.304 33.4533 16.34C33.4293 16.364 33.4053 16.388 33.3813 16.412C33.3573 16.436 33.3393 16.46 33.3273 16.484C33.2913 16.544 33.2853 16.598 33.3093 16.646C33.3453 16.694 33.3813 16.742 33.4173 16.79C33.4533 16.838 33.4833 16.892 33.5073 16.952C33.6153 17.084 33.7173 17.228 33.8133 17.384C33.9093 17.528 33.9993 17.672 34.0833 17.816C34.1073 17.852 34.1313 17.894 34.1553 17.942C34.1913 17.978 34.2213 18.02 34.2453 18.068L34.9833 19.148C35.0673 19.268 35.1453 19.388 35.2173 19.508C35.3013 19.628 35.3853 19.754 35.4693 19.886C35.5293 19.982 35.5953 20.078 35.6673 20.174C35.7513 20.258 35.8233 20.348 35.8833 20.444C35.9193 20.492 35.9553 20.54 35.9913 20.588C36.0393 20.624 36.0873 20.666 36.1353 20.714C36.2193 20.786 36.2913 20.87 36.3513 20.966C36.4473 21.122 36.4953 21.272 36.4953 21.416C36.4953 21.572 36.4713 21.704 36.4233 21.812L36.2793 22.118C36.1953 22.262 36.1473 22.388 36.1353 22.496C36.1233 22.58 36.0753 22.664 35.9913 22.748C35.8833 22.82 35.7753 22.832 35.6673 22.784Z" fill="#7B4600"/>
</svg>
