<svg width="94" height="129" viewBox="0 0 94 129" fill="none" xmlns="http://www.w3.org/2000/svg">
<mask id="mask0_114_695" style="mask-type:luminance" maskUnits="userSpaceOnUse" x="0" y="0" width="94" height="129">
<path d="M94 0H0V129H94V0Z" fill="white"/>
</mask>
<g mask="url(#mask0_114_695)">
<mask id="mask1_114_695" style="mask-type:luminance" maskUnits="userSpaceOnUse" x="0" y="0" width="94" height="130">
<path d="M0 0.00012207H94V129H0V0.00012207Z" fill="white"/>
</mask>
<g mask="url(#mask1_114_695)">
<path d="M62.9961 19.9164C62.9841 18.8852 62.9649 18.225 62.9392 17.9355C62.9306 17.8632 62.9195 17.8141 62.9056 17.788C62.8368 20.2561 62.3254 24.461 61.3713 30.4022C61.1803 31.5523 61.0125 32.5719 60.8677 33.461C60.6182 34.9648 60.433 36.0867 60.3124 36.8255C59.9973 38.7483 59.8363 39.8896 59.8293 40.2486C59.8293 40.0239 59.8224 39.8518 59.8088 39.733C59.7827 39.521 59.7329 39.4138 59.6589 39.4113C59.6589 38.1579 59.6883 36.4742 59.7468 34.3603C59.8018 32.246 59.8293 30.9256 59.8293 30.3983L59.6589 30.6738C59.6589 31.9709 59.2025 35.5012 58.29 41.2643C57.6767 45.1406 57.3634 47.1254 57.3498 47.2185C57.1138 48.7484 56.9752 49.7797 56.9338 50.3122V50.32C56.9251 50.4155 56.9202 50.4942 56.9183 50.5563V50.308C56.8372 49.9024 56.7599 49.2912 56.6857 48.4748C56.6135 47.7045 56.5773 47.1307 56.5773 46.7533C56.5773 46.3012 56.6135 45.5606 56.6857 44.5322C56.7649 43.3744 56.8424 42.6701 56.9183 42.4197L56.7477 42.4119C56.758 42.7452 56.536 44.0501 56.0812 46.327C55.6268 48.5418 55.3995 49.6608 55.3995 49.6841V45.5789C55.3995 45.5451 55.4855 42.2631 55.6575 35.7326C55.7318 32.5278 55.7894 29.5688 55.8307 26.8553C55.8756 23.829 55.9022 21.1053 55.9109 18.6835C55.8368 19.7045 55.6129 21.1945 55.2392 23.1533C55.024 24.1972 54.8491 25.0592 54.715 25.7388C54.7079 23.3353 54.6865 21.0341 54.6503 18.8348C54.6228 17.191 54.5876 15.6043 54.5443 14.0747C54.4877 12.0948 54.4299 10.4979 54.3714 9.28325V9.5661C54.3714 9.80909 54.1148 12.0302 53.6015 16.2299C53.0885 20.4296 52.8319 22.7036 52.8319 23.0524L52.6589 23.0486C52.6589 22.2088 52.5168 19.1219 52.2326 13.7876C51.9502 8.52323 51.8073 5.76566 51.8038 5.51526V5.78647C51.2184 9.96286 50.8241 12.9684 50.6208 14.8033C50.1543 19.0263 49.9207 22.6828 49.9207 25.7737C49.9207 26.0449 49.9492 26.8063 50.006 28.0573C50.0422 28.848 50.0662 29.401 50.0784 29.7163C49.9976 29.5096 49.8667 28.49 49.6857 26.6575C49.4996 24.8021 49.3492 23.7437 49.2338 23.4827C49.1492 24.8733 49.0717 26.6265 49.0009 28.7432C48.9337 30.6297 48.898 32.0679 48.8926 33.0579C48.8912 32.9542 48.7643 31.7812 48.5131 29.5378C48.4061 28.6074 48.2797 27.4962 48.1333 26.204C47.6255 21.4978 47.3714 18.4098 47.3714 16.9391C47.194 18.2702 47.0699 20.4331 46.9994 23.4284C46.9564 25.2531 46.9219 28.4706 46.896 33.0811C46.8685 37.8387 46.8333 41.2216 46.7903 43.2298C46.7351 45.8374 46.6507 47.7832 46.537 49.0676C46.5024 49.4552 46.4646 49.7821 46.4234 50.0484C46.4234 49.852 46.4096 49.507 46.3821 49.0133C46.3666 48.7368 46.3553 48.5171 46.3485 48.3545V48.3467C46.345 48.2459 46.3421 48.1672 46.3405 48.1101V48.3545C46.294 48.9773 46.2486 49.5949 46.2037 50.2075C46.004 52.9675 45.8155 55.6655 45.6381 58.3014C45.4745 60.7694 45.3735 62.4002 45.3356 63.1937C45.2428 62.47 45.1239 61.3471 44.9791 59.8249C44.9378 59.3806 44.8931 58.9037 44.845 58.3945C44.8243 58.1903 44.8052 57.9811 44.7881 57.7664C44.5385 55.0144 44.3411 52.4582 44.1966 50.0988C44.1345 49.1219 44.0821 48.1799 44.0391 47.2728C43.8478 43.2231 43.6772 38.8171 43.5275 34.0538C43.481 32.5578 43.4441 31.5639 43.4166 31.073C43.3788 30.4061 43.3294 29.8298 43.2693 29.3438C43.2314 29.4059 43.2072 29.53 43.1969 29.7163C43.1882 29.8274 43.1842 30.0044 43.1842 30.247C43.1842 35.1961 43.1144 39.9862 42.9751 44.6175C42.9114 46.6747 42.8399 48.4825 42.7607 50.0406C42.6916 51.3406 42.6176 52.466 42.5384 53.4172C42.5368 53.4687 42.5358 53.5205 42.5358 53.5723C42.5342 53.7427 42.4935 54.1176 42.4143 54.6963C42.4143 54.6473 42.3998 54.2777 42.3704 53.5879C42.3688 53.536 42.3659 53.4831 42.3626 53.4288C42.33 52.6508 42.2825 51.5152 42.2205 50.0212C42.1998 49.5483 42.1786 49.0429 42.1561 48.5054C41.9942 44.7583 41.9082 42.4891 41.8978 41.6984C41.891 41.8691 41.8177 42.5798 41.6783 43.8307C41.5423 45.04 41.4739 45.7817 41.4739 46.0558L41.3914 45.9161C41.3914 45.8642 41.3801 45.6717 41.3578 45.3384C41.3113 44.6718 41.2184 43.4364 41.0788 41.6325C40.8669 38.8982 40.7416 37.3979 40.7019 37.132C40.6692 37.1295 40.645 37.1785 40.6295 37.279L40.6189 37.4265C40.6516 39.2177 40.5264 41.5796 40.242 44.5128C40.1372 45.5959 40.026 46.5879 39.909 47.4901C39.8573 47.8957 39.8124 48.2212 39.7746 48.467C39.7471 48.1566 39.7194 47.8452 39.6916 47.5328C39.6193 46.6772 39.5506 45.7958 39.4853 44.8887C39.0703 39.1232 38.9056 33.6729 38.9916 28.5376C38.9589 29.1298 38.8583 30.4036 38.6894 32.3599C38.4741 34.8463 38.3702 36.2235 38.3773 36.4922L38.2194 36.2249C38.2055 36.1396 38.0629 35.4289 37.791 34.0926C37.6876 33.5759 37.5642 32.9672 37.4211 32.2672C36.9252 29.76 36.6738 28.2946 36.667 27.8711V28.1151C36.5722 28.4251 36.3772 30.3856 36.0809 33.9956C35.7848 37.7432 35.6142 39.8261 35.5695 40.2447V39.9851C35.3817 39.047 35.1439 36.5659 34.8565 32.5423C34.8135 31.9194 34.7684 31.2617 34.7221 30.569C34.6342 29.2588 34.5172 27.4651 34.3708 25.1886C34.2624 23.5113 34.1901 22.5499 34.1539 22.3044V22.564C33.5097 32.1857 33.0216 41.3239 32.6893 49.9786C32.5653 53.2116 32.4628 56.3789 32.382 59.48C32.3336 61.3848 32.2605 64.9331 32.1622 70.1249C32.1538 70.577 32.1451 71.0111 32.1366 71.4273C32.0814 73.9447 32.0201 75.7638 31.9529 76.8857L31.7954 76.6219C31.7954 76.4822 31.7171 75.7342 31.5604 74.3771C31.4037 73.0154 31.3254 72.297 31.3254 72.2219L31.168 72.218C31.0817 73.0478 31.0309 74.8218 31.0154 77.5406C31.0119 78.0548 31.0103 78.6042 31.0103 79.1879C30.795 78.8264 30.4714 77.043 30.039 73.8385C29.8806 72.655 29.7394 71.5112 29.6155 70.4081C29.5037 69.4153 29.4447 68.8065 29.4398 68.5819V69.0703C29.3603 70.0212 29.2823 71.2658 29.2048 72.8034C29.0464 75.8763 28.9672 79.3537 28.9672 83.2352C28.9672 88.3261 29.2426 92.6693 29.7937 96.2642C29.7972 96.285 29.7998 96.3051 29.8014 96.3259C29.7946 96.3128 29.7869 96.3001 29.7782 96.2871C28.8896 94.7882 28.3336 93.0012 28.1097 90.9261C27.9684 89.673 27.7616 87.5393 27.4897 84.526C27.2366 81.7297 27.1072 80.222 27.102 80.0023C27.1053 81.31 27.1375 83.0698 27.1979 85.2818C27.2665 87.7188 27.3553 90.0856 27.4639 92.3833C27.4707 92.5124 27.4768 92.6418 27.4817 92.7716C27.5628 94.4355 27.6472 95.9309 27.7351 97.2562C27.983 101.009 28.2603 103.397 28.5667 104.42V104.571C28.4271 104.057 28.2102 103.386 27.9158 102.56C27.4542 101.259 27.0919 100.497 26.8284 100.272C26.8284 100.66 26.9772 101.411 27.2752 102.525C27.5797 103.662 27.7358 104.334 27.7426 104.54C27.7099 104.509 27.618 104.361 27.4665 104.095C27.165 103.573 27.0134 103.309 27.0117 103.304L26.9187 103.149C27.0498 103.795 27.2519 104.587 27.5259 105.525C27.7823 106.401 27.9769 106.984 28.1097 107.273C27.7583 107.261 26.4943 106.468 24.3177 104.897C23.3601 104.206 22.315 103.437 21.1819 102.587C21.4453 102.886 21.7381 103.337 22.0601 103.94C22.2976 104.376 22.5954 104.98 22.9535 105.75C23.1603 106.192 23.4825 106.882 23.9198 107.82C24.4848 109.014 24.9926 109.996 25.4438 110.766C25.4215 111.03 25.4325 111.396 25.4772 111.867C25.4807 112.068 25.4577 112.216 25.4076 112.309C25.3491 112.422 25.2434 112.477 25.0899 112.472C25.0521 112.469 24.9806 112.402 24.8756 112.27C24.7379 112.087 24.6267 111.942 24.5424 111.836C24.2152 111.422 23.9412 111.207 23.7208 111.188C23.788 111.362 23.9285 111.671 24.1422 112.115C24.3555 112.562 24.6105 113.082 24.9066 113.673C24.8876 113.673 24.7825 113.696 24.5915 113.739C24.4021 113.781 24.2634 113.8 24.1755 113.797C24.1067 113.795 23.5145 113.646 22.3985 113.352C21.2326 113.047 20.5095 112.843 20.2287 112.739L20.0452 112.731C20.5222 112.804 21.4498 113.459 22.8273 114.697C24.2016 115.935 25.3613 116.958 26.3067 117.767C27.1194 118.462 27.9073 118.932 28.6701 119.178C28.7923 119.219 28.9138 119.254 29.0342 119.283C29.1909 119.316 29.3986 119.354 29.6569 119.395C29.8238 119.418 30.0132 119.445 30.2251 119.473C30.7882 119.545 31.211 119.611 31.4934 119.67C32.22 119.828 32.9579 119.938 33.7071 120C34.2117 120.044 34.9529 120.08 35.9312 120.108C37.1934 120.145 38.3961 120.201 39.5396 120.279C39.5499 120.276 39.5593 120.278 39.568 120.283C40.3085 120.329 41.0255 120.385 41.7195 120.45L42.2412 120.496C48.3371 120.923 52.2294 120.877 53.9167 120.36C54.0233 120.327 54.1303 120.293 54.2372 120.26C54.7554 120.105 55.279 119.955 55.8075 119.81C57.621 119.306 59.4902 118.857 61.4153 118.465C64.0155 117.938 66.1266 117.038 67.7488 115.767C68.9799 114.798 70.0125 113.558 70.8461 112.049C70.8545 112.028 70.8625 112.008 70.8693 111.987C71.3118 110.834 71.7172 109.696 72.0859 108.572C72.413 107.567 72.5947 106.94 72.6309 106.692C72.414 106.803 72.2812 106.869 72.233 106.89C72.0916 106.949 71.9703 106.976 71.869 106.971C71.6897 106.966 71.5649 106.86 71.4944 106.653C71.4307 106.467 71.3988 106.154 71.3988 105.715C71.447 104.896 71.4944 104.036 71.5407 103.137C71.6199 101.607 71.6667 100.54 71.6803 99.9352C71.9524 99.7722 72.2142 99.5821 72.4657 99.3652C72.7498 97.6054 72.8915 96.6609 72.8915 96.5315C72.237 97.4904 71.8009 98.0342 71.5821 98.1637V97.6826C71.1466 98.5097 70.7105 98.9748 70.275 99.0782C70.1768 98.753 70.1096 98.5044 70.0734 98.334C70.0132 98.0473 69.9831 97.7704 69.9831 97.5049C69.9831 97.2954 70.0071 96.9794 70.0553 96.5583C70.1035 96.1397 70.1279 95.8558 70.1279 95.7059L69.9831 95.702C69.966 96.1361 69.8189 96.8232 69.5416 97.7641C69.2882 98.6296 68.9679 99.5656 68.5804 100.571C68.1948 101.571 67.8282 102.426 67.4804 103.137C67.1032 103.905 66.8165 104.356 66.6203 104.494V102.09C66.6443 101.907 66.6793 101.707 66.7258 101.489C66.7705 101.267 66.8259 101.028 66.8912 100.772C67.0017 100.354 67.0567 100.078 67.0567 99.9464L66.3284 99.9196C66.3284 99.5553 66.304 98.9787 66.2558 98.1908C66.2074 97.4023 66.1834 96.9244 66.1834 96.7561C66.1834 95.3274 66.2396 93.5648 66.3514 91.4688C66.4671 89.285 66.6045 87.5097 66.7648 86.1427C66.3982 86.6774 66.119 87.1052 65.928 87.4254C65.8641 87.5287 65.8053 87.6324 65.7522 87.7357V85.7008C65.8657 83.9328 65.9581 82.3074 66.0286 80.824C66.0821 79.7078 66.1113 78.922 66.1164 78.4671C65.9632 79.3484 65.6439 81.6937 65.1581 85.503C65.086 86.0609 65.0192 86.5807 64.9591 87.0611C64.8764 85.8673 64.8352 85.2007 64.8352 85.0607L64.7445 85.0568C64.7445 85.1319 64.6493 85.5816 64.4583 86.4062C64.2651 87.2462 64.1469 87.7005 64.1041 87.7703V87.6194C64.1041 87.1775 63.7209 85.7343 62.9545 83.2896C62.5412 81.4366 62.2918 78.7076 62.2058 75.1022C62.1816 74.1432 62.1694 73.1226 62.1694 72.0395C62.168 66.8841 62.1367 64.2158 62.0763 64.0348C62.0695 64.0116 62.0627 63.9766 62.0559 63.9301C62.0077 63.6176 61.9706 62.7596 61.9445 61.3563C61.9257 60.4002 61.9123 59.6906 61.9036 59.2279C61.9001 58.9154 61.8984 58.7151 61.8984 58.6273L62.0065 58.6308C62.0119 58.3363 62.0199 57.9826 62.0303 57.5689C62.0491 56.8088 62.0791 55.8517 62.1205 54.6963C62.1586 53.5981 62.1995 52.4931 62.2444 51.3819C62.3113 49.7123 62.3865 48.0325 62.4692 46.3425C62.8669 38.3131 63.3209 32.5423 63.8306 29.0299L63.7373 29.0261C63.7373 29.207 63.6022 29.7022 63.3319 30.5108C63.0737 31.2811 62.9038 31.7318 62.8229 31.8637V31.7124C62.864 31.5135 62.8908 31.0988 62.9028 30.4682C62.9115 30.0908 62.916 29.4486 62.916 28.5418C62.916 28.0869 62.9461 25.9391 63.0062 22.0988C63.0062 21.3053 63.0029 20.5781 62.9961 19.9164Z" fill="#7DB8E4"/>
<path d="M30.9563 111.107C30.159 110.456 29.5684 110.011 29.1842 109.773C28.5332 109.368 27.9573 109.165 27.4562 109.165C27.2238 109.165 27.0817 109.194 27.03 109.25C26.9491 109.338 26.9087 109.572 26.9087 109.952C26.9087 110.314 26.9999 110.776 27.1825 111.34C27.3651 111.901 27.4562 112.297 27.4562 112.53C27.4562 112.917 27.3754 113.315 27.2135 113.723C27.0499 114.132 26.9681 114.551 26.9681 114.98C26.9681 115.776 27.2093 116.597 27.6912 117.445C27.7119 117.482 27.9013 117.792 28.2595 118.376C28.4644 118.709 28.6014 118.977 28.6703 119.178C28.8648 119.24 29.0319 119.284 29.1715 119.31C29.2608 119.328 29.4227 119.356 29.657 119.395C29.3092 118.762 28.8157 117.965 28.177 117.003C28.0184 116.765 27.9117 116.577 27.8564 116.437C27.7928 116.269 27.761 116.075 27.761 115.856C27.7937 114.861 27.8325 113.991 27.8774 113.247C27.9032 112.823 27.9211 112.412 27.9314 112.014C27.9401 111.608 27.9453 111.396 27.9469 111.378C27.9537 111.252 27.9737 111.173 28.0064 111.142C28.0306 111.119 28.0917 111.107 28.1897 111.107C28.2743 111.107 28.7537 111.499 29.6286 112.282C30.7375 113.274 31.3918 113.85 31.5915 114.01C31.8794 114.24 32.3226 114.441 32.9219 114.611C33.5437 114.787 34.1488 114.875 34.738 114.875C34.886 114.875 35.2141 114.786 35.7219 114.608C35.975 114.517 36.2187 114.427 36.453 114.336C36.6217 114.336 37.8073 114.644 40.0097 115.259C42.4568 115.874 44.3751 116.181 45.7649 116.181C46.0645 116.181 46.3263 116.236 46.55 116.344C46.7016 116.419 46.8858 116.551 47.1027 116.739C47.3699 116.975 47.572 117.138 47.7097 117.228C47.987 117.414 48.3014 117.56 48.6528 117.666C48.7989 117.71 49.2003 117.74 49.8564 117.755C50.2111 117.763 50.689 117.771 51.2899 117.779C51.5395 117.786 51.8514 117.864 52.225 118.011C52.7829 118.231 53.1178 118.357 53.2299 118.391C53.0454 117.9 52.4866 117.537 51.5534 117.302C51.3762 117.258 50.9774 117.175 50.3575 117.054C49.872 116.958 49.5086 116.868 49.2673 116.782C48.7543 116.602 48.3299 116.324 47.9938 115.949C47.8131 115.745 47.5868 115.401 47.3147 114.918C47.0752 114.494 46.86 114.202 46.6689 114.042C46.3744 113.796 45.9869 113.673 45.5066 113.673C45.4478 113.673 45.058 113.708 44.3363 113.778C43.6148 113.845 43.1354 113.879 42.8976 113.879C42.1261 113.879 41.502 113.646 41.0249 113.181C40.8148 112.977 40.5876 112.69 40.3429 112.32C40.2294 112.147 39.9867 111.754 39.6147 111.142L39.5552 111.138C39.6379 111.823 39.8367 112.327 40.1519 112.65C40.3274 112.828 40.4275 112.937 40.4515 112.975C40.5375 113.107 40.5805 113.278 40.5805 113.487C40.5805 113.572 40.5178 113.628 40.3921 113.654L40.2036 113.669C39.8403 113.669 39.5656 113.6 39.3797 113.46C39.178 113.308 39.104 113.091 39.1574 112.809C39.073 112.869 38.8129 113.065 38.3774 113.398C38.212 113.525 38.094 113.588 38.0235 113.588C37.9321 113.588 37.7187 113.395 37.3829 113.01C37.0487 112.625 36.8405 112.433 36.7578 112.433C36.4323 112.536 36.1042 112.64 35.7736 112.743C35.1158 112.947 34.6921 113.049 34.5027 113.049C33.9862 113.049 33.398 112.846 32.7386 112.441C32.3372 112.195 31.7431 111.751 30.9563 111.107ZM54.5007 12.5663C54.485 12.0937 54.4422 10.999 54.3715 9.2829C54.3473 9.79745 54.0987 12.0662 53.6249 16.0903C53.1326 20.2691 52.8682 22.5897 52.832 23.0524L52.6591 23.0486C52.6487 22.5679 52.5169 19.7948 52.2638 14.7296C51.9729 8.92247 51.8196 5.85101 51.8039 5.51526C51.7162 6.26188 51.5217 7.79037 51.2201 10.1011C50.9551 12.1477 50.7501 13.8159 50.6056 15.1056C50.149 19.1861 49.9211 22.7421 49.9211 25.7737C49.9211 25.9571 49.945 26.5863 49.9932 27.6616C50.0449 28.8219 50.0733 29.5068 50.0785 29.7159L50.0863 29.7625C50.0891 29.8101 50.091 29.8824 50.0914 29.9797C50.0898 29.9145 50.0856 29.8263 50.0785 29.7159C50.0698 29.6722 49.9347 28.6501 49.6729 26.6497C49.4163 24.6702 49.2701 23.6146 49.2339 23.4827C49.0859 26.5891 48.9919 28.8296 48.9522 30.2047C48.9282 31.0081 48.9085 31.9593 48.8929 33.0575C48.8568 32.6234 48.762 31.7628 48.6088 30.4759C48.3884 28.6279 48.2361 27.3255 48.1515 26.5683C47.7313 22.7876 47.4714 19.5779 47.3716 16.9391C47.1838 19.3476 47.0545 22.0678 46.984 25.099C46.9427 26.9287 46.9126 29.6746 46.8936 33.3368C46.8764 37.0322 46.847 39.8039 46.8059 41.6519C46.7368 44.7505 46.6094 47.5493 46.4236 50.0484V49.9708C46.3719 48.8052 46.3444 48.1849 46.3408 48.1101C45.869 54.9404 45.5816 59.1672 45.4782 60.7902C45.4229 61.674 45.3757 62.4753 45.336 63.1937L45.4032 63.686L45.3179 63.6818L45.3308 63.1937H45.336C45.2103 62.1935 45.0467 60.5938 44.8453 58.3945C44.8056 59.237 44.7687 60.1233 44.7341 61.0537C44.6756 62.6559 44.6465 63.8409 44.6465 64.6083C44.6465 64.6136 44.6627 65.2713 44.6954 66.5815C44.7299 67.9693 44.749 68.8506 44.7522 69.2255C44.3802 67.0622 44.0376 64.9278 43.7241 62.8213C43.4832 61.139 43.3531 60.2446 43.3343 60.1388C43.3256 60.3483 43.267 60.8004 43.1585 61.4956C43.0398 62.2683 42.9425 62.7398 42.8666 62.9105L42.9364 62.9493C42.8986 63.0061 42.8408 63.0565 42.7634 63.1006L42.6911 63.1355C42.6979 63.1302 42.7272 63.0939 42.7787 63.0269C42.8321 62.9599 42.8614 62.9211 42.8666 62.9105H42.864C42.7712 61.6804 42.6901 60.5719 42.6213 59.5844C42.492 57.6824 42.4241 56.0943 42.4173 54.8201C42.4156 54.8307 42.4147 54.7894 42.4147 54.6963C42.3698 53.7219 42.3155 52.479 42.2518 50.9671C42.1245 47.9383 42.0065 44.8489 41.8979 41.6984C41.8963 41.7344 41.8258 42.4479 41.6862 43.8381C41.5485 45.2181 41.4778 45.9574 41.4745 46.0554C41.4176 45.9574 41.3866 45.8604 41.3814 45.7648C41.3729 45.5373 41.365 45.3952 41.3581 45.3384C41.3581 45.7288 41.4202 47.5402 41.5443 50.7731C41.6697 54.107 41.7344 55.8503 41.7379 56.0026L41.6448 65.8296L41.5494 65.8257C41.4806 65.4794 41.2343 64.116 40.8106 61.7361C40.3697 59.2652 40.1434 57.9618 40.1312 57.8246L40.0513 57.8207C40.0581 58.1205 40.0717 59.516 40.0924 62.0073C40.115 64.651 40.1277 66.645 40.1312 67.9887V71.993C39.8248 69.9027 39.5155 67.91 39.2039 66.0158C38.5856 62.2707 38.1751 60.3984 37.9718 60.3984C37.8444 60.3984 37.6903 60.4929 37.5095 60.6816C37.3234 60.8752 37.1961 60.9764 37.1272 60.9838V59.1503C37.1246 59.3344 37.0316 60.2016 36.8483 61.7516C36.7707 61.7541 36.7112 61.6701 36.6699 61.4994C36.6184 61.2103 36.5641 60.9503 36.5073 60.7204C36.1094 65.8321 35.9061 68.7085 35.8977 69.3493V69.4269C35.8942 69.3493 35.8519 68.9201 35.771 68.14C35.673 67.1761 35.5713 66.2638 35.4662 65.4032C35.1407 62.7465 34.8773 61.2938 34.6757 61.0459C34.4193 64.0281 34.0327 67.0418 33.516 70.0861C33.3214 71.2259 33.1336 72.2219 32.9529 73.075C32.791 73.8371 32.6765 74.296 32.6096 74.4508L32.6016 74.4935C32.5931 74.2455 32.5595 73.9197 32.501 73.5169C32.4303 73.0464 32.309 72.3499 32.1367 71.4273C32.1161 72.3499 32.0841 73.4291 32.0411 74.6641C32.0033 75.7909 31.9739 76.5312 31.9534 76.8853C31.8846 76.7146 31.7699 76.0015 31.6099 74.7456C31.4686 73.6319 31.3739 72.789 31.3258 72.218H31.1551C31.1157 72.7735 31.0853 73.4859 31.0647 74.3541C31.0492 74.9974 31.0329 76.0597 31.0156 77.5406C31.3258 79.0366 31.5711 80.1158 31.7518 80.7774C31.8482 81.1312 31.9438 81.4144 32.0385 81.6263L32.0411 81.6225C32.0479 81.5861 32.1513 81.067 32.3511 80.064C32.5113 79.2553 32.5948 78.8081 32.6016 78.7227V78.8585C32.6326 78.9411 32.7059 79.3674 32.8213 80.1377C32.9555 81.0423 33.0589 81.8757 33.1313 82.6382C33.6236 82.2633 34.068 81.5526 34.4639 80.5059C34.7516 79.7409 35.0376 78.7178 35.3217 77.4358C35.6006 76.0816 35.7985 75.1618 35.9158 74.6758C36.1085 73.877 36.2868 73.4777 36.4504 73.4777C36.6812 73.5892 36.8076 73.6446 36.8299 73.6446C36.9627 73.6446 37.1075 73.5839 37.264 73.4622C37.4724 73.3021 37.6696 73.0499 37.8555 72.7064C37.7659 72.5749 37.6679 72.4518 37.561 72.3382C37.4595 72.2374 37.3897 72.1651 37.3519 72.1214C37.24 71.987 37.1838 71.7697 37.1838 71.47C37.1838 71.3691 37.1944 71.1906 37.2151 70.935C37.2358 70.6793 37.2459 70.5227 37.2459 70.4659L37.295 70.5202C38.5041 72.2233 39.4528 73.4365 40.1415 74.1602C40.9664 75.0285 41.6526 75.4626 42.2004 75.4626C42.2319 75.4626 42.3353 75.4422 42.5101 75.4005C42.3722 78.2526 42.2493 80.3204 42.1409 81.6031C42.0977 82.1173 42.0253 82.7468 41.9238 83.4909L41.9163 83.4638C41.7095 82.7895 41.5743 82.3486 41.5104 82.1419C41.4124 81.8238 41.3471 81.6651 41.3142 81.6651C41.0559 81.6651 40.8397 81.8305 40.6658 82.161C40.5627 82.3578 40.404 82.7119 40.1907 83.2233C39.9098 83.7763 39.4476 84.4664 38.8035 85.2935C38.3661 85.8517 37.7763 86.5557 37.0341 87.406C36.9101 87.5485 36.7018 87.8222 36.409 88.2281C36.0939 88.6622 35.8495 88.9839 35.6754 89.1934C35.0451 89.9502 34.483 90.3293 33.9888 90.3293C33.6668 90.3293 33.4222 90.214 33.2551 89.9841C33.1707 89.8469 33.1061 89.7435 33.0615 89.674C32.9806 89.5474 32.896 89.449 32.8084 89.3792C32.1212 91.1962 31.6761 92.3526 31.4729 92.8488C30.7996 94.4951 30.2401 95.6336 29.794 96.2642L29.8015 96.3259C29.2815 95.6463 28.8613 94.6538 28.5412 93.3489C28.2794 92.2817 28.0642 90.9038 27.8952 89.2163C27.8196 88.4644 27.6964 86.9126 27.526 84.561C27.3848 82.5969 27.2436 81.0772 27.1023 80.0019C27.1127 81.2479 27.1702 83.5788 27.2755 86.9951C27.4165 91.6106 27.57 95.0316 27.7352 97.2562C28.2122 98.0212 28.8406 98.6028 29.6208 99.0006C30.2288 99.3109 30.8073 99.4661 31.3565 99.4661C31.5873 99.4661 31.8637 99.3988 32.1859 99.2644C32.5369 99.117 32.8627 98.9209 33.1623 98.6754C33.9303 98.0469 34.2978 97.3095 34.2651 96.4617C35.4293 98.1467 36.3996 99.342 37.1763 100.047C38.0061 100.8 38.775 101.146 39.4828 101.086C39.4537 101.329 39.4391 101.495 39.4391 101.583C39.4391 102.598 39.6603 103.839 40.1028 105.304C40.2905 105.929 40.566 106.71 40.9293 107.645C41.3187 108.648 41.6371 109.311 41.885 109.634C42.152 109.983 42.4913 110.157 42.9028 110.157C43.075 110.157 43.373 110.026 43.7965 109.762C44.0515 109.604 44.4991 109.315 45.1398 108.894C46.4882 108.051 47.6272 107.63 48.5571 107.63C48.6431 107.63 48.7103 107.645 48.7585 107.676C48.7931 107.697 48.8248 107.732 48.8539 107.781C49.3519 107.874 49.8546 108.077 50.3626 108.39C50.5899 108.529 50.7638 108.622 50.8843 108.668C51.0808 108.749 51.2918 108.789 51.5172 108.789C52.0786 108.789 52.7157 108.474 53.4287 107.843C53.7664 107.528 54.0056 107.311 54.1468 107.192C54.3809 106.995 54.5611 106.897 54.6866 106.897C54.983 106.897 55.2213 107.003 55.4022 107.215C55.5279 107.365 55.6725 107.643 55.836 108.048C56.0513 108.579 56.2228 108.962 56.3502 109.2C56.6101 109.681 56.9278 110.106 57.3034 110.475C57.4582 110.628 57.7235 110.784 58.0988 110.944C58.3157 111.035 58.6593 111.169 59.1295 111.347C59.5326 111.51 59.8305 111.668 60.0232 111.82C60.2763 112.022 60.403 112.25 60.403 112.503C60.403 112.508 60.3201 112.921 60.1548 113.743C59.9518 114.645 59.7528 115.306 59.5582 115.724L59.9767 115.739C59.9802 115.739 60.3132 115.678 60.9762 115.553C61.6772 115.424 62.1164 115.355 62.2938 115.344V115.022C62.0717 114.909 61.7944 114.781 61.4619 114.639C61.1985 114.528 61.0239 114.444 60.9376 114.386C60.8067 114.304 60.7156 114.199 60.6636 114.073C60.6122 113.943 60.5863 113.751 60.5863 113.495C60.5863 113.177 60.6345 112.881 60.7311 112.607C60.8067 112.39 60.9325 112.138 61.108 111.851C61.332 111.508 61.5084 111.23 61.6377 111.018C61.864 110.648 62.0605 110.275 62.2266 109.902C62.1742 110.009 62.0135 110.118 61.7435 110.227C61.4062 110.361 61.0288 110.429 60.6122 110.429C60.2763 110.416 59.8985 110.321 59.4781 110.146C58.636 109.797 57.9928 109.217 57.5487 108.405C57.6606 108.465 57.8086 108.521 57.9928 108.576C58.1686 108.625 58.2969 108.649 58.3778 108.649C58.5707 108.649 58.7188 108.631 58.8219 108.595C58.9082 108.564 59.0339 108.493 59.1993 108.382C59.8329 107.948 60.5191 107.537 61.2579 107.149L61.245 107.63C61.245 108.033 61.2819 108.297 61.3562 108.421C61.418 108.524 61.5446 108.576 61.7357 108.576C62.0062 108.576 62.267 108.418 62.5185 108.103C62.7166 107.852 62.9525 107.441 63.2263 106.87C63.5569 106.139 63.8211 105.566 64.0192 105.153C64.3757 104.411 64.7244 103.772 65.0654 103.234C65.0635 103.296 65.037 103.741 64.9853 104.568C64.9352 105.405 64.9103 105.908 64.9103 106.079C64.9103 106.526 64.9818 106.805 65.1249 106.917C65.2074 106.981 65.4132 107.013 65.7422 107.013C66.0021 107.013 66.3069 106.9 66.6564 106.672C66.9905 106.453 67.3238 106.157 67.6561 105.785C68.4052 104.945 68.8677 104.091 69.0433 103.222L69.1027 103.226C69.0837 103.443 69.074 103.619 69.074 103.753C69.074 104.213 69.1361 104.589 69.2602 104.881C69.3652 105.129 69.4754 105.254 69.5908 105.254C69.7527 105.254 69.8629 104.956 69.9214 104.362C69.944 104.155 69.9818 103.425 70.035 102.172C70.0436 101.79 70.054 101.522 70.066 101.369C70.0831 101.131 70.1273 100.881 70.1978 100.617C70.2272 100.509 70.4218 100.394 70.7815 100.272C71.2725 100.107 71.5719 99.9944 71.6804 99.9352C71.9095 99.7825 72.0783 99.6601 72.1869 99.5666C72.3779 99.4012 72.4891 99.2281 72.5201 99.0471L72.7292 97.7334C72.8376 97.0252 72.8921 96.6246 72.8921 96.5311C72.6679 96.8803 72.3969 97.2435 72.0783 97.6206C71.8181 97.9334 71.6529 98.1143 71.5822 98.1633V97.6826C71.2431 98.2409 71.0269 98.5693 70.9341 98.6673C70.8375 98.7706 70.618 98.9078 70.2754 99.0782C70.1943 98.7992 70.1341 98.5731 70.0944 98.4C70.0206 98.0847 69.9835 97.786 69.9835 97.5045C69.9835 97.3261 70.01 96.9875 70.0634 96.4888C70.1134 96.0289 70.1348 95.7662 70.128 95.702H69.9809C69.9844 96.0014 69.881 96.5392 69.6709 97.3144C69.4608 98.0896 69.1913 98.9311 68.8623 99.8378C68.0565 102.066 67.3092 103.617 66.6204 104.494V102.09C66.6427 101.956 66.7219 101.568 66.858 100.927C66.9854 100.336 67.0516 100.009 67.0568 99.9465L66.3285 99.9196C66.3353 99.7539 66.3137 99.2228 66.2637 98.3263C66.2106 97.3881 66.1838 96.8648 66.1838 96.7561C66.1838 95.6322 66.2209 94.2652 66.2947 92.6549C66.3983 90.4274 66.5548 88.2566 66.7649 86.1424C66.6599 86.3028 66.4688 86.592 66.1915 87.0106C65.9556 87.3728 65.8092 87.6141 65.7525 87.7357V85.7004C65.9814 82.0799 66.1029 79.6686 66.1166 78.4671L66.1036 78.5563C66.0263 78.9929 65.8816 80.0125 65.6698 81.6147C65.558 82.4523 65.3211 84.2675 64.9594 87.0611C64.9303 86.64 64.9009 86.1861 64.8718 85.7004C64.8476 85.3002 64.8353 85.0868 64.8353 85.0607L64.7451 85.0568V85.0804C64.7348 85.1732 64.6495 85.571 64.4894 86.2739C64.3101 87.0653 64.1818 87.564 64.1045 87.7707C64.1233 87.5587 64.046 87.1207 63.8721 86.4562C63.846 86.3557 63.6307 85.5908 63.2263 84.1614C62.7166 82.3525 62.396 80.1479 62.2654 77.548C62.2118 76.5196 62.1808 75.282 62.1723 73.8347C62.169 73.5141 62.1681 72.1728 62.1697 69.8106C62.1714 66.6707 62.1397 64.6019 62.0741 63.6046C61.9862 62.2425 61.9277 60.5832 61.8985 58.6269C61.9794 58.671 62.0259 58.5148 62.0379 58.1578C62.033 57.7833 62.0304 57.5869 62.0304 57.5685C62.001 57.1499 61.97 56.7302 61.9371 56.3088C61.908 55.96 61.8917 55.7611 61.8882 55.712L61.6997 55.7043C61.6962 55.7043 61.5247 56.3955 61.1856 57.778C61.0152 58.4707 60.8429 59.1686 60.669 59.8715V58.3014C60.7515 57.389 60.9419 55.2377 61.2398 51.8471C61.5395 48.4074 61.6927 46.6306 61.6997 46.5167C61.6687 46.6694 61.535 47.2457 61.2991 48.2459C61.0862 49.1851 60.9708 49.774 60.9531 50.0135L60.9583 49.9281C61.1252 47.0648 61.2156 45.4626 61.2295 45.1212C60.83 47.3772 60.5175 49.3737 60.2919 51.1103C60.2919 49.8287 60.2909 48.813 60.2893 48.0635C60.2857 47.562 60.2841 47.2986 60.2841 47.2728C60.2841 46.1926 60.3953 44.0113 60.6173 40.7293C60.8394 37.4445 60.9506 35.6962 60.9506 35.4843C60.9506 35.3009 60.9231 34.6262 60.8681 33.4606C60.7525 34.1794 60.5372 35.4935 60.2221 37.4032C59.9638 39.0132 59.8329 39.9619 59.8296 40.2486C59.8296 40.0289 59.8012 39.8247 59.7443 39.636C59.6874 39.4914 59.659 39.4163 59.659 39.4113C59.659 38.4679 59.6865 36.7842 59.7417 34.3599C59.8002 31.7886 59.8296 30.4682 59.8296 30.3983C59.7022 30.7496 59.5866 31.4387 59.4835 32.4647C59.3112 34.1625 59.1925 35.249 59.1267 35.7245C58.989 36.7352 58.7557 38.2962 58.4269 40.4073C58.2563 41.5083 58.0636 42.736 57.8483 44.0903C57.6763 45.204 57.4892 46.3862 57.2878 47.6372C57.1534 48.5263 57.0303 49.4993 56.9184 50.5563C56.8874 50.0523 56.8186 49.3092 56.7119 48.327C56.6221 47.495 56.5774 46.9706 56.5774 46.7533C56.5774 45.7867 56.6188 44.8679 56.7015 43.9972C56.7636 43.3356 56.8357 42.8097 56.9184 42.4193L56.7478 42.4115C56.7257 42.706 56.5189 43.8833 56.1281 45.9432C55.8059 47.6435 55.5632 48.8906 55.3996 49.6837V45.5786C55.4494 44.3537 55.4866 43.253 55.5108 42.2761C55.5864 39.3972 55.6931 34.2566 55.8308 26.855C55.495 28.623 55.26 30.8184 55.1258 33.4412C55.0344 35.2737 54.9776 37.7971 54.9552 41.0121C54.9294 45.1808 54.9038 47.8167 54.8777 48.9202C54.8107 51.8897 54.6688 54.4198 54.4516 56.5105V51.2193C54.14 52.5267 53.7318 54.9651 53.2273 58.5341C53.1394 59.1411 52.7305 62.1702 52.0003 67.6205C51.8471 67.5842 51.7223 67.3839 51.6258 67.0195C51.5499 66.6164 51.4977 66.3671 51.4683 66.2715C51.3959 66.0338 51.3019 65.6356 51.1865 65.0774C51.073 64.5011 51.0014 64.1445 50.9722 64.0077C50.6966 62.7282 50.4764 61.498 50.3112 60.3173C50.1561 59.2113 50.0896 58.4562 50.1121 58.0531L50.0191 58.0496L50.0165 58.1152C49.6205 59.418 49.3397 60.1145 49.1745 60.2048L49.159 60.1427C49.1002 59.7992 49.0598 59.4423 49.0377 59.073C48.998 58.4269 48.9808 57.4574 48.9858 56.1652L48.3299 60.1737C48.2815 59.564 48.2352 58.7923 48.1903 57.8595C48.1059 56.1356 48.0587 54.3578 48.0484 52.5256C48.0241 52.564 47.8408 52.953 47.498 53.6923C47.1828 54.3719 46.9866 54.7506 46.9091 54.8279V53.7233C47.1554 51.7592 47.3758 49.5808 47.5704 47.1875C47.7821 44.5516 47.8881 42.5071 47.8881 41.0548C47.8881 40.2976 47.9191 39.0132 47.9811 37.2015C48.0672 34.7077 48.1163 33.2437 48.1285 32.8096C48.0749 32.4089 48.0484 32.1839 48.0484 32.1349C48.0794 32.1892 48.1069 32.2344 48.1308 32.2707C48.1379 32.2887 48.1412 32.3144 48.1412 32.3483L48.1285 32.8096C48.2368 33.5305 48.3856 34.5024 48.5752 35.7245C48.7148 36.6266 48.7886 37.1524 48.7973 37.3023L48.8929 37.3062C48.8962 37.2417 48.9444 36.8565 49.0377 36.1508C49.1322 35.4483 49.1796 35.0784 49.1796 35.0424C49.252 35.1277 49.3371 35.3577 49.4353 35.7322C49.5371 36.1251 49.5749 36.3991 49.5491 36.5543C49.8694 35.2543 50.1234 33.9441 50.3112 32.6234C50.466 31.5276 50.5993 30.2393 50.7114 28.7584C50.7165 28.6914 50.8129 27.2221 51.0007 24.351C51.1351 22.3298 51.2805 20.4783 51.4373 18.796C51.4422 18.9018 51.5405 20.3492 51.7317 23.1374C51.9021 25.652 51.9917 27.195 52.0003 27.7663L52.0055 27.7314C52.021 27.62 52.1562 26.983 52.4109 25.8202C52.664 24.6702 52.809 24.0332 52.8449 23.9091C52.8536 24.4466 52.8882 25.1639 52.9481 26.0608C53.0052 26.903 53.0336 27.4341 53.0336 27.6538L53.0543 27.518C53.1662 26.7608 53.6982 23.8664 54.6507 18.8348C54.5955 16.0719 54.5454 13.9827 54.5007 12.5663ZM57.5588 50.2537V50.0988C57.5849 50.564 57.6011 50.8948 57.6079 51.0913C57.6218 51.5279 57.6286 52.1172 57.6286 52.8589L57.5849 63.089C57.5849 63.2413 57.5875 63.8021 57.5926 64.7712C57.6006 65.9026 57.6077 66.7903 57.6133 67.4346C57.571 66.687 57.4227 65.1221 57.1689 62.7398C56.914 60.3702 56.7582 59.0212 56.7015 58.6929C56.6599 58.6516 56.6298 58.6244 56.611 58.6114C56.6146 58.8752 56.4982 59.728 56.2623 61.1701C56.0868 62.2401 55.8748 63.4635 55.6269 64.8411C55.6217 64.792 55.6191 64.7416 55.6193 64.6898C55.6191 64.385 55.6906 62.7218 55.8337 59.7008C55.9765 56.6773 56.048 54.8011 56.048 54.0721L56.1408 54.076V57.1964C56.2769 57.0674 56.487 56.2869 56.7711 54.8554C57.0296 53.5579 57.2921 52.0241 57.5588 50.2537ZM60.1781 63.2865C60.5934 64.8915 61.0065 65.836 61.418 66.1202C61.5214 65.6085 61.5989 65.2403 61.6506 65.0156C61.7883 64.421 61.8985 64.0669 61.9813 63.9534C61.9002 65.0336 61.7503 66.8192 61.5317 69.3109C61.3508 71.5229 61.2509 73.2027 61.2321 74.3503C60.9083 73.7532 60.5804 72.7026 60.2479 71.1984C59.9741 69.958 59.7986 68.9437 59.721 68.1552L59.7185 68.0702C59.0278 71.9002 58.5216 74.0117 58.1996 74.4042L58.1221 74.6991V74.4042H58.1996C58.2443 74.2494 58.2753 74.0466 58.2927 73.7959C58.3063 73.5941 58.3432 73.4326 58.4036 73.3113C58.3399 73.4069 58.0532 73.8861 57.5435 74.7495C57.0183 75.6358 56.7384 76.1179 56.7041 76.1951C56.6402 76.1048 56.5871 76.0248 56.5438 75.9549C56.4628 75.8234 56.3862 75.6654 56.314 75.482C56.1004 74.9368 55.8887 74.0748 55.6786 72.8965H55.5778C55.5122 73.1367 55.4109 73.4573 55.273 73.8576C55.1421 74.2402 55.0502 74.4896 54.9966 74.606C54.8107 73.531 54.7083 72.9237 54.6895 72.7837C54.5567 71.8099 54.3837 70.1171 54.1701 67.7058V64.2944C54.2888 65.8218 54.3724 66.8439 54.4206 67.3609C54.5188 68.4154 54.6229 69.2668 54.7332 69.9154C54.8192 69.6699 54.8993 69.3945 54.9736 69.0897C55.0422 68.7872 55.092 68.578 55.123 68.462C55.2213 68.0973 55.3728 67.9153 55.5778 67.9153C55.6433 67.9153 55.7672 68.1862 55.9498 68.729C56.048 69.0189 56.2339 69.6156 56.5076 70.5202C57.0348 72.2543 57.3593 73.1215 57.4815 73.1215C57.888 73.1215 58.2513 71.3832 58.5717 67.9072C58.8283 65.1214 59.0226 61.6934 59.1552 57.6232C59.4482 59.8919 59.7892 61.7798 60.1781 63.2865ZM46.7232 56.6808V56.6036C46.8903 61.351 46.9789 63.832 46.9892 64.0465L47.0047 64.1548C47.0839 63.8811 47.1485 63.6599 47.1984 63.4921C47.2914 63.1817 47.3516 62.9944 47.3793 62.9299L47.4724 62.9338C47.4912 63.3136 47.5111 63.8694 47.5318 64.6005C47.5558 65.1666 47.5988 65.4974 47.6606 65.593C47.7349 65.4769 47.9527 64.9483 48.3144 64.0077C48.669 63.0798 48.8619 62.5462 48.8929 62.4065V62.3677C49.0323 62.665 49.1684 63.1704 49.3011 63.8835C49.3803 64.3124 49.5016 65.04 49.6654 66.0659C50.0198 68.1566 50.4503 69.6932 50.9567 70.675C51.2305 71.2076 51.8314 72.2011 52.7599 73.6562C53.6362 75.0362 54.1055 75.7973 54.1675 75.9394C53.7267 75.7973 53.3152 75.6023 52.9328 75.3543C52.3818 74.9974 51.5045 74.3164 50.3008 73.3113V74.5516C50.18 74.4741 49.9415 74.261 49.5853 73.9122C49.2494 73.5839 49.0805 73.4196 49.0791 73.4196C49.041 73.4196 48.8455 73.6432 48.4925 74.0907C48.093 74.5347 47.753 74.7569 47.4724 74.7569C47.0435 74.7569 46.6835 74.0671 46.3925 72.687C46.112 71.3564 45.9714 69.7718 45.9714 67.9344C45.9714 64.7169 46.2219 60.9659 46.7232 56.6808ZM48.903 76.8081C49.0737 76.6268 49.19 76.5365 49.252 76.5365C49.4447 76.5365 49.6574 76.7146 49.89 77.0715C49.9812 77.2136 50.1955 77.6062 50.5332 78.2502C50.8155 78.7873 51.0573 79.1788 51.2589 79.4246C51.5534 79.7811 51.8488 79.9592 52.1449 79.9592C52.4739 79.9592 52.8055 79.8404 53.1394 79.6027C53.3408 79.4581 53.6268 79.1957 53.9969 78.8159C54.367 78.4307 54.6511 78.1673 54.8493 78.0252C55.1818 77.7871 55.5108 77.6683 55.836 77.6683C55.9394 77.6683 56.098 77.6838 56.3114 77.7148C56.5267 77.7458 56.6825 77.7614 56.7788 77.7614C57.4521 77.7614 58.0307 77.5265 58.5148 77.056C58.7336 76.844 58.9857 76.5418 59.2717 76.1489C59.4181 75.9444 59.7166 75.5078 60.1678 74.8387C60.18 74.898 60.285 75.3297 60.4831 76.1334C60.6465 76.8028 60.7285 77.189 60.7285 77.2926C60.7285 77.6697 60.2773 79.0172 59.3749 81.3357C58.531 83.4962 58.0474 84.672 57.9231 84.8628C57.8577 84.9616 57.646 85.1499 57.2878 85.4292C56.9243 85.7082 56.7248 85.8736 56.6884 85.9251C56.3493 86.3853 56.0987 86.6851 55.9368 86.8248C55.6494 87.0755 55.3185 87.2007 54.9449 87.2007C54.6453 87.2007 54.4265 87.109 54.2888 86.9253C54.1339 86.7215 54.0564 86.3737 54.0564 85.8828C54.0564 85.7717 54.0658 85.5996 54.0848 85.3672L54.023 85.3629C53.7318 86.0351 53.1876 86.7317 52.3902 87.4525C51.3503 88.3907 50.2052 88.998 48.9547 89.2745C48.998 88.9722 49.0393 88.6971 49.0791 88.4489C49.0927 88.361 49.0995 88.2993 49.0995 88.263C49.0598 87.8028 49.0393 87.5418 49.0377 87.4797C48.9134 87.5961 48.7026 87.8609 48.4046 88.2743C47.8674 89.0237 47.5849 89.417 47.5574 89.4529C46.7946 90.4739 46.2358 90.9842 45.8812 90.9842C45.4161 90.9842 45.0864 90.8005 44.8918 90.4337C44.7332 90.1368 44.654 89.6843 44.654 89.077C44.654 88.0588 44.8531 86.8181 45.2507 85.3555C45.3628 84.9447 45.5247 84.398 45.7364 83.7159C45.9326 83.0825 46.0593 82.6576 46.1162 82.4403C46.0351 82.5204 45.899 82.7284 45.708 83.0645C45.5978 83.261 45.4126 83.5918 45.1527 84.0566C44.6378 84.9408 44.2367 85.3827 43.949 85.3827C43.844 85.3827 43.7612 85.2896 43.7011 85.1034C43.6494 84.9433 43.6106 84.7013 43.5848 84.3786L43.4736 83.1848C43.3756 82.0115 43.2851 80.9866 43.2024 80.1105C43.2024 80.1028 43.119 79.4902 42.9519 78.2731C42.8194 77.3142 42.7531 76.5802 42.7531 76.0713C42.7531 75.7225 42.8769 75.124 43.1251 74.2766C43.3488 73.5141 43.5763 72.8588 43.8068 72.3111C44.153 73.1071 44.643 74.0413 45.2765 75.1138C45.9326 76.2223 46.4588 76.9939 46.8548 77.4277C47.3267 77.8054 47.8312 77.773 48.3684 77.3311C48.4753 77.2433 48.6535 77.0687 48.903 76.8081ZM38.9947 91.2248C39.6887 90.6841 40.3251 90.2708 40.9034 89.9841C41.3788 89.7464 41.737 89.6271 41.9781 89.6271C42.3346 89.6271 42.7357 90.0204 43.1817 90.8058C43.4865 91.3383 43.8818 92.1999 44.3673 93.3913C44.4345 93.5595 44.5826 93.9326 44.8117 94.5117C45.07 95.1141 45.3715 95.6981 45.7157 96.2642C46.7368 97.9436 48.1644 99.5268 49.9986 101.013C51.2829 102.219 51.9804 102.876 52.0908 102.982C52.7296 103.589 53.1885 104.049 53.4675 104.362L53.4726 104.23C53.788 104.675 53.9619 104.921 53.9946 104.966C53.964 104.926 53.9001 104.849 53.8033 104.738C53.6862 104.601 53.5741 104.476 53.4675 104.362C53.4277 105.492 53.248 106.331 52.9274 106.882C52.6882 107.295 52.4092 107.502 52.0908 107.502C51.884 107.502 51.7583 107.463 51.7134 107.386C51.6723 107.316 51.6516 107.114 51.6516 106.781C51.6516 106.75 51.6688 106.534 51.7033 106.133C51.7395 105.702 51.7625 105.341 51.7729 105.052V104.971C51.477 105.539 51.1995 105.986 50.9412 106.312C50.6193 106.72 50.3358 106.924 50.0914 106.924C49.9469 106.924 49.8383 106.87 49.766 106.762C49.6661 106.563 49.5653 106.373 49.4638 106.192C48.563 106.763 47.6385 107.299 46.6896 107.801C45.4342 108.467 44.6204 108.801 44.2486 108.801C43.7476 108.801 43.4057 108.661 43.2231 108.382C43.0835 108.17 43.0139 107.812 43.0139 107.308C43.0139 107.042 43.0457 106.714 43.1096 106.324C43.1972 105.796 43.3239 105.329 43.4891 104.92L43.2748 104.944C43.1991 105.026 43.0483 105.2 42.8227 105.467C42.5818 105.692 42.3155 105.804 42.0246 105.804C41.744 105.804 41.4754 105.325 41.2188 104.366C40.9965 103.529 40.8856 102.823 40.8856 102.249C40.8856 102.076 40.894 101.805 40.9114 101.435C40.9561 100.859 40.988 100.449 41.0068 100.206C41.0378 99.7955 41.0559 99.3832 41.0611 98.9699C41.0905 97.7112 41.0921 96.8972 41.0663 96.5276C41.0284 95.9771 40.9173 95.702 40.733 95.702C40.6503 95.702 40.5281 95.7859 40.3662 95.9538C40.0494 96.2818 39.7766 96.5456 39.5475 96.7445C39.4647 96.8016 39.339 96.8637 39.1703 96.9307C38.9912 97.0006 38.8613 97.0355 38.7802 97.0355C38.4566 97.0355 37.8451 96.6154 36.9462 95.7757C36.1129 94.9328 35.6944 94.5117 35.6909 94.5117C35.6117 94.5117 35.4784 94.5621 35.2907 94.663C35.1372 94.7455 34.9953 94.8348 34.8644 94.9303C35.0641 94.5375 35.3544 94.159 35.7348 93.7947C35.952 93.5881 36.2998 93.301 36.7785 92.9338C36.9766 92.7818 37.3441 92.4948 37.8813 92.0737C38.2362 91.7943 38.6072 91.5115 38.9947 91.2248ZM48.5494 92.5346C48.5494 91.8628 48.5898 91.4494 48.6706 91.2943C48.7139 91.2142 48.7792 91.1627 48.8671 91.1391C48.9237 91.1236 49.0314 91.1161 49.19 91.1161C49.1968 91.1161 49.5164 91.2579 50.1481 91.5425C50.8371 91.8317 51.3167 91.9961 51.587 92.0345L51.5896 92V91.9961C52.1646 92.0014 52.8372 91.6755 53.607 91.0192C54.3268 90.4037 54.8286 89.7784 55.1127 89.1429V89.0227L55.175 89.0265L55.1127 89.1429C55.111 89.3729 55.0913 90.049 55.0535 91.1701C55.0535 92.6097 55.218 93.7856 55.5467 94.6979C55.812 95.4343 56.2019 96.0339 56.7168 96.4966C56.9788 96.7343 57.4411 97.0432 58.104 97.4231C58.6584 97.7408 59.0417 98.042 59.2534 98.3263C59.1965 98.5587 59.0795 98.8472 58.9021 99.1907C58.8008 99.3871 58.6344 99.7024 58.4036 100.137C57.9785 101 57.7656 101.855 57.7656 102.703C57.7656 103.122 57.7759 103.476 57.7966 103.765C57.807 103.912 57.8173 104.055 57.8276 104.195C57.8276 104.348 57.8114 104.518 57.7785 104.707C57.1311 104.627 56.6085 104.438 56.2106 104.141C55.9937 103.978 55.8454 103.876 55.7665 103.835C55.5806 103.739 55.3557 103.677 55.092 103.648C54.5499 103.595 54.1168 103.394 53.7929 103.048C53.4588 102.691 53.2917 102.23 53.2917 101.664C53.2917 100.814 53.7119 99.9726 54.5524 99.1402C54.8192 98.874 55.1334 98.6066 55.495 98.3379C55.8292 98.1002 56.0273 97.9556 56.0893 97.9037C55.4762 98.0071 55.0939 98.0586 54.9425 98.0586C54.3518 98.0586 53.6724 97.9348 52.9044 97.6869C51.8556 97.3455 51.0808 96.8648 50.5795 96.2448C49.9819 95.5052 49.4793 94.7367 49.0711 93.9383C48.7233 93.2583 48.5494 92.7907 48.5494 92.5346ZM57.6211 67.5584C57.6295 67.6801 57.6521 68.1139 57.6881 68.8609C57.7278 69.6981 57.7475 70.1894 57.7475 70.334C57.6925 69.6156 57.6502 68.6905 57.6211 67.5584ZM59.7495 81.9677C60.3934 80.3856 60.8145 79.3625 61.0126 78.897C61.0488 79.6415 60.8291 81.3216 60.3539 83.9367C60.0611 85.5389 59.894 86.4665 59.8526 86.72C59.6978 87.6377 59.6202 88.2602 59.6202 88.5885C59.6202 89.3408 59.7657 89.9608 60.0566 90.4492C60.3804 90.9917 60.83 91.2632 61.4053 91.2632C61.6238 91.2632 61.8588 91.2103 62.1105 91.1045C62.1173 91.3884 62.1345 91.7065 62.162 92.0581C62.3288 93.3655 62.4238 94.1537 62.4461 94.4225C62.4616 94.6009 62.4884 95.2019 62.5262 96.225C62.5347 96.3128 62.577 96.45 62.6527 96.6359C62.7406 96.8507 62.8336 97.0185 62.9318 97.1402C63.0195 97.251 63.1934 97.4245 63.4533 97.6597C63.5826 97.7733 63.7024 97.8794 63.8126 97.9775C63.8126 98.1556 63.741 98.3908 63.5983 98.6828C63.4155 99.0524 63.0376 99.6999 62.4644 100.625C62.2489 101.127 61.9011 101.625 61.4206 102.121C60.9299 102.63 60.5388 102.885 60.2479 102.885C60.043 102.885 59.9156 102.782 59.8658 102.575C59.8242 102.407 59.8035 101.984 59.8035 101.307C59.8035 101.24 59.8717 100.628 60.0077 99.4696C60.0251 99.343 60.0388 99.2217 60.0491 99.1053C60.0491 99.1029 60.0705 98.9064 60.1137 98.516L60.1678 97.8882V97.3536C60.1076 97.3381 60.0463 97.3172 59.9845 97.2912C59.914 97.2732 59.8063 97.1878 59.6616 97.0355C59.486 96.8493 59.342 96.6426 59.2304 96.4151C59.1046 96.2109 59.0019 95.9654 58.9227 95.6784C58.8283 95.3349 58.8161 95.0739 58.8868 94.8958C58.637 95.0301 58.4873 95.1099 58.4372 95.1356C58.382 95.1642 58.3324 95.1786 58.2873 95.1786C57.9689 95.0802 57.6521 94.8154 57.3367 94.384C56.7083 93.5207 56.3939 92.2546 56.3939 90.585C56.3939 89.4995 56.6101 88.4824 57.0423 87.534C57.1715 87.2526 57.3945 86.8205 57.7113 86.2393C58.0488 85.6218 58.3073 85.1242 58.4863 84.7468C59.1028 83.4468 59.5239 82.5204 59.7495 81.9677ZM65.5716 89.8719L65.5742 89.825C65.6637 90.1738 65.7084 90.7864 65.7084 91.6628C65.7084 92.5903 65.6931 93.2752 65.6621 93.7171C65.6242 94.2652 65.549 94.7018 65.4374 95.0273C65.3234 95.3581 65.1462 95.6477 64.9051 95.896C64.6934 96.1153 64.3715 96.3608 63.9391 96.6324L63.9468 96.729C63.9468 96.8454 63.9297 96.9477 63.8951 97.0355C63.8505 97.1515 63.7816 97.2213 63.6885 97.2446V96.8609C63.7092 95.6593 63.8091 94.7949 63.9882 94.2673C64.0175 94.1848 64.1252 93.916 64.3111 93.4611C64.4765 93.0608 64.6255 92.6461 64.7578 92.2169C64.9714 91.514 65.1643 90.9285 65.3366 90.4609C65.4572 90.1248 65.5354 89.9287 65.5716 89.8719ZM64.3395 99.1829C64.801 99.9789 65.0316 100.704 65.0316 101.358C65.0316 101.66 64.7768 102.072 64.2671 102.594C63.7471 103.127 63.321 103.393 62.9885 103.393C62.8472 103.393 62.7544 103.349 62.7095 103.261C62.6769 103.196 62.6604 103.069 62.6604 102.878C62.6604 102.691 62.7991 102.318 63.0764 101.757C63.7771 100.343 64.1983 99.4852 64.3395 99.1829Z" fill="#CDD6E3"/>
<path d="M32.1857 99.2643C31.8638 99.3987 31.5874 99.4661 31.3567 99.4661C30.8072 99.4661 30.2287 99.3112 29.6207 99.0009C28.8408 98.6031 28.2121 98.0211 27.7351 97.2562C27.8093 98.5614 27.9565 100.076 28.1769 101.8C28.2683 102.523 28.3983 103.447 28.567 104.571C28.2434 103.47 27.9196 102.516 27.5957 101.707C27.2583 100.864 27.0026 100.386 26.8287 100.273L26.8313 100.354C26.8226 100.646 26.969 101.402 27.2703 102.621C27.5854 103.893 27.7431 104.533 27.7431 104.54L27.7301 104.524C27.6491 104.411 27.501 104.165 27.2858 103.788C27.0724 103.414 26.9499 103.2 26.9189 103.149C27.2583 104.552 27.5252 105.563 27.7198 106.18C27.83 106.534 27.96 106.899 28.1099 107.273C27.7189 107.16 27.1671 106.867 26.4541 106.397C25.5 105.764 23.7427 104.494 21.1821 102.587C21.5748 102.962 22.2601 104.218 23.2381 106.358C23.2863 106.467 23.6705 107.236 24.3903 108.665C25.0927 110.063 25.4441 110.763 25.4441 110.766L25.4803 111.944C25.4803 112.125 25.4485 112.261 25.3848 112.351C25.3277 112.434 25.2495 112.475 25.1496 112.475C25.0911 112.475 25.0403 112.455 24.9973 112.414C24.9938 112.408 24.936 112.338 24.8241 112.2C24.5762 111.893 24.2087 111.555 23.721 111.188L23.7523 111.262C23.8228 111.422 24.0148 111.829 24.3283 112.483C24.6244 113.101 24.8173 113.498 24.9069 113.674C24.4644 113.759 24.2336 113.801 24.2145 113.801C24.2042 113.801 23.6936 113.664 22.6828 113.39C21.5445 113.08 20.6653 112.86 20.0454 112.731L20.1436 112.755C20.5208 112.863 21.0926 113.233 21.8589 113.864C22.2102 114.153 22.9695 114.823 24.137 115.875C25.1616 116.798 25.9658 117.483 26.5497 117.93C27.416 118.597 28.1226 119.012 28.6701 119.178C28.6015 118.976 28.4645 118.709 28.2596 118.376C27.9015 117.792 27.7121 117.482 27.6914 117.445C27.2092 116.598 26.968 115.776 26.968 114.98C26.968 114.551 27.0498 114.132 27.2134 113.723C27.3753 113.315 27.4561 112.917 27.4561 112.53C27.4561 112.297 27.365 111.901 27.1824 111.34C27 110.777 26.9086 110.314 26.9086 109.952C26.9086 109.572 26.9492 109.339 27.0301 109.251C27.0818 109.194 27.2237 109.165 27.4561 109.165C27.9574 109.165 28.5334 109.368 29.1843 109.773C29.5683 110.011 30.1589 110.456 30.9565 111.107C31.7432 111.75 32.3373 112.195 32.7385 112.441C33.3981 112.847 33.9863 113.049 34.5028 113.049C34.6923 113.049 35.116 112.947 35.7737 112.743C36.1044 112.64 36.4322 112.537 36.7577 112.433C36.8404 112.433 37.0488 112.625 37.383 113.011C37.7186 113.396 37.932 113.588 38.0234 113.588C38.0939 113.588 38.2121 113.525 38.3775 113.398C38.813 113.065 39.0731 112.868 39.1575 112.809C39.1041 113.09 39.1782 113.308 39.3796 113.46C39.5657 113.6 39.8402 113.669 40.2037 113.669L40.3922 113.654C40.5179 113.628 40.5807 113.573 40.5807 113.487C40.5807 113.278 40.5376 113.108 40.4516 112.976C40.4274 112.937 40.3276 112.828 40.152 112.65C39.8369 112.327 39.6378 111.823 39.5553 111.138L39.6146 111.142C39.9866 111.754 40.2293 112.148 40.3431 112.321C40.5875 112.69 40.8149 112.977 41.025 113.181C41.5021 113.646 42.1262 113.879 42.8978 113.879C43.1353 113.879 43.615 113.845 44.3364 113.778C45.0579 113.708 45.448 113.674 45.5067 113.674C45.9871 113.674 46.3743 113.796 46.669 114.042C46.8601 114.202 47.0753 114.494 47.3146 114.918C47.5869 115.401 47.813 115.745 47.994 115.949C48.33 116.323 48.7542 116.602 49.2674 116.782C49.5085 116.868 49.8718 116.958 50.3576 117.054C50.9773 117.175 51.3761 117.258 51.553 117.302C52.4865 117.537 53.0455 117.9 53.2298 118.391C53.1179 118.357 52.783 118.231 52.2251 118.012C51.8515 117.864 51.5396 117.786 51.2898 117.778C50.6892 117.771 50.211 117.763 49.8563 117.755C49.2002 117.74 48.7991 117.71 48.6529 117.666C48.3016 117.56 47.9871 117.414 47.7098 117.228C47.5721 117.138 47.3698 116.975 47.1028 116.739C46.8859 116.551 46.7017 116.42 46.5501 116.344C46.3262 116.236 46.0646 116.181 45.765 116.181C44.3752 116.181 42.4569 115.874 40.0098 115.259C37.8074 114.644 36.6218 114.337 36.4531 114.337C36.2188 114.427 35.9751 114.517 35.722 114.608C35.214 114.786 34.8859 114.875 34.7378 114.875C34.1489 114.875 33.5436 114.787 32.922 114.611C32.3228 114.441 31.8793 114.241 31.5917 114.011C31.3919 113.851 30.7377 113.274 29.6287 112.282C28.7538 111.499 28.2742 111.107 28.1898 111.107C28.0918 111.107 28.0305 111.119 28.0065 111.142C27.9738 111.173 27.9539 111.252 27.9471 111.378C27.9454 111.396 27.9402 111.608 27.9315 112.014C27.9212 112.412 27.9031 112.823 27.8773 113.247C27.8326 113.991 27.7938 114.861 27.7612 115.856C27.7612 116.076 27.7929 116.269 27.8566 116.437C27.9118 116.576 28.0185 116.765 28.1769 117.003C28.8158 117.965 29.3091 118.762 29.6571 119.395C33.3817 119.857 35.3552 120.093 35.5775 120.101C37.8488 120.181 40.3793 120.328 43.1689 120.543C45.3213 120.708 47.2561 120.791 48.973 120.791C50.5176 120.791 51.6482 120.753 52.3647 120.678C52.8538 120.627 53.371 120.521 53.9167 120.361C55.7887 119.807 58.2649 119.165 61.3455 118.434C62.4509 118.17 63.2518 117.967 63.7477 117.825C64.4435 117.623 64.9751 117.424 65.3417 117.224C66.5439 116.576 67.4407 116.022 68.0329 115.565C69.0406 114.787 69.8154 113.889 70.3577 112.871C71.1962 111.3 71.8251 109.808 72.2436 108.394C72.3761 107.947 72.48 107.533 72.5562 107.153C72.6043 106.856 72.6292 106.702 72.6309 106.692C72.5016 106.785 72.4062 106.849 72.3442 106.886C72.2391 106.942 72.0949 106.971 71.9104 106.971C71.7278 106.971 71.5992 106.889 71.5254 106.727C71.4408 106.54 71.399 106.203 71.399 105.715C71.399 105.25 71.4434 104.211 71.533 102.598C71.6296 100.867 71.6789 99.9789 71.6805 99.9351C71.572 99.9944 71.2724 100.107 70.7814 100.273C70.4214 100.394 70.2268 100.509 70.1975 100.617C70.1272 100.881 70.083 101.132 70.0659 101.369C70.0539 101.522 70.0435 101.789 70.0348 102.171C69.9815 103.425 69.9437 104.155 69.9213 104.362C69.8628 104.957 69.7528 105.253 69.5907 105.253C69.4755 105.253 69.3649 105.13 69.2601 104.882C69.136 104.59 69.0742 104.213 69.0742 103.753C69.0742 103.619 69.0838 103.444 69.1026 103.227L69.0429 103.222C68.8674 104.091 68.4051 104.945 67.6562 105.785C67.3239 106.157 66.9904 106.453 66.6562 106.673C66.3068 106.9 66.002 107.013 65.7419 107.013C65.4131 107.013 65.2075 106.981 65.1248 106.917C64.9819 106.805 64.91 106.526 64.91 106.079C64.91 105.908 64.9351 105.405 64.9852 104.568C65.0366 103.741 65.0634 103.296 65.0653 103.234C64.7241 103.772 64.3756 104.411 64.0188 105.153C63.821 105.566 63.5568 106.139 63.226 106.87C62.9522 107.441 62.7165 107.852 62.5186 108.103C62.2669 108.418 62.0061 108.576 61.7356 108.576C61.5445 108.576 61.4179 108.524 61.3558 108.421C61.2818 108.297 61.2451 108.033 61.2451 107.63L61.2576 107.149C60.519 107.537 59.833 107.948 59.1995 108.382C59.034 108.493 58.9078 108.564 58.8218 108.595C58.7187 108.631 58.5706 108.649 58.3777 108.649C58.2968 108.649 58.1685 108.625 57.9927 108.576C57.8085 108.521 57.6607 108.465 57.5486 108.405C57.993 109.216 58.6362 109.797 59.4782 110.146C59.8984 110.322 60.2765 110.416 60.6121 110.429C61.0289 110.429 61.4061 110.361 61.7436 110.227C62.0134 110.118 62.1741 110.01 62.2263 109.902C62.0601 110.276 61.8637 110.648 61.6376 111.018C61.5083 111.23 61.3319 111.508 61.1079 111.852C60.9324 112.138 60.8064 112.391 60.7307 112.607C60.6344 112.882 60.5862 113.177 60.5862 113.495C60.5862 113.751 60.612 113.943 60.6637 114.073C60.7157 114.199 60.8064 114.304 60.9375 114.386C61.0235 114.443 61.1984 114.528 61.462 114.639C61.7946 114.781 62.0714 114.909 62.2937 115.022V115.344C62.1163 115.354 61.6771 115.425 60.9761 115.554C60.3131 115.678 59.9804 115.739 59.9766 115.739L59.5583 115.724C59.7529 115.305 59.9519 114.645 60.155 113.743C60.3202 112.922 60.4029 112.508 60.4029 112.503C60.4029 112.25 60.2765 112.022 60.0231 111.82C59.8304 111.668 59.5327 111.51 59.1297 111.347C58.6594 111.169 58.3159 111.035 58.099 110.944C57.7234 110.784 57.4581 110.628 57.3033 110.475C56.928 110.106 56.6102 109.681 56.3503 109.2C56.223 108.962 56.0514 108.578 55.8361 108.048C55.6726 107.643 55.5281 107.365 55.4021 107.215C55.2214 107.003 54.9829 106.898 54.6865 106.898C54.561 106.898 54.381 106.995 54.147 107.192C54.0057 107.311 53.7663 107.528 53.4288 107.844C52.7158 108.474 52.0785 108.789 51.5171 108.789C51.2915 108.789 51.0809 108.749 50.8845 108.668C50.7639 108.622 50.59 108.529 50.3628 108.389C49.8547 108.077 49.3518 107.874 48.8541 107.781C48.8249 107.732 48.7927 107.697 48.7584 107.676C48.7102 107.645 48.643 107.63 48.5568 107.63C47.6269 107.63 46.4881 108.051 45.1397 108.893C44.499 109.315 44.0516 109.605 43.7966 109.762C43.3729 110.026 43.0749 110.157 42.9029 110.157C42.4912 110.157 42.1521 109.983 41.8851 109.634C41.6372 109.311 41.3186 108.648 40.9294 107.645C40.5661 106.71 40.2907 105.929 40.1029 105.304C39.6604 103.839 39.439 102.598 39.439 101.582C39.439 101.495 39.4536 101.33 39.483 101.087C38.7751 101.146 38.0062 100.8 37.1762 100.048C36.3998 99.3423 35.4292 98.1463 34.2653 96.4616C34.2979 97.3091 33.9302 98.0469 33.1622 98.675C32.8625 98.9208 32.5371 99.1169 32.1857 99.2643ZM48.8566 107.855L48.8541 107.785C48.8853 107.798 48.9032 107.817 48.9086 107.844L48.8879 107.897C48.8689 107.869 48.8583 107.855 48.8566 107.855ZM65.1271 111.972L65.0909 112.002C65.1045 111.907 65.1356 111.827 65.184 111.762C65.1856 111.76 65.2124 111.732 65.2639 111.681L65.3287 111.611C64.9551 111.924 64.5398 112.261 64.0837 112.623C63.4946 113.091 63.1632 113.335 63.089 113.355C63.0669 113.353 63.0455 113.348 63.0248 113.34C63.264 113.123 63.9718 112.363 65.148 111.061C66.3639 109.714 67.1406 108.823 67.4778 108.386C67.6071 108.221 67.9403 107.735 68.4775 106.929C68.9856 106.166 69.2403 105.785 69.2422 105.785L69.3348 105.788C69.0095 106.403 68.6272 107.095 68.1882 107.862C67.8108 108.524 67.5232 109.014 67.3253 109.331C67.0912 109.709 66.7493 110.142 66.2998 110.63C66.0758 110.873 65.8756 111.08 65.6982 111.251C65.6982 111.276 65.7066 111.278 65.7238 111.255C65.7393 111.229 65.747 111.229 65.747 111.255C65.747 111.262 65.5405 111.501 65.1271 111.972ZM36.6674 27.871C36.5882 28.5845 36.3946 30.7333 36.0863 34.3179C35.7641 38.0521 35.5921 40.0277 35.5695 40.245C35.4663 39.2681 35.3672 38.3092 35.2722 37.3686C35.0863 35.5311 34.9479 33.9222 34.8568 32.5422C34.6897 37.7911 34.5837 41.1027 34.539 42.4778C34.4373 45.5221 34.3583 47.6568 34.3012 48.8817V57.7586L34.3969 57.918C34.4537 57.804 34.6699 57.153 35.0452 55.9641C35.4137 54.7985 35.6041 54.1743 35.616 54.0918C35.6212 54.2727 35.6015 54.5513 35.5568 54.9287C35.4964 55.42 35.4534 56.1704 35.4276 57.1809C35.5585 57.2144 35.7505 57.1036 36.0036 56.8479C36.2738 56.5714 36.5556 56.1835 36.8481 55.6845V55.7702C36.843 56.0544 36.8026 56.7185 36.7269 57.7624C36.6839 58.3697 36.6106 59.3562 36.5074 60.7207C36.564 60.9506 36.6183 61.2102 36.67 61.4997C36.7114 61.6704 36.7708 61.7544 36.8481 61.7519C37.0317 60.2019 37.1247 59.3343 37.1271 59.1502V60.9841C37.1962 60.9764 37.3236 60.8755 37.5094 60.6819C37.6904 60.4932 37.8443 60.3983 37.9717 60.3983C38.1747 60.3983 38.5857 62.2707 39.204 66.0154C39.5156 67.91 39.8247 69.9023 40.1311 71.9929V67.9886C40.1278 66.6449 40.1149 64.6509 40.0926 62.0072C40.0719 59.5159 40.058 58.1208 40.0512 57.821C40.0289 57.8545 39.9675 58.0781 39.8674 58.4914C39.7659 58.9129 39.6973 59.1555 39.6611 59.22C39.5286 58.915 39.3427 57.6034 39.1032 55.2852C38.7984 52.3393 38.5777 50.4179 38.4417 49.5214L38.429 49.878C38.4015 50.2529 38.3806 50.8627 38.3667 51.7077C38.3531 52.4236 38.3472 53.0965 38.3491 53.7271L38.3333 53.6107C38.2542 52.9364 38.1846 51.6893 38.1242 49.8699C38.1035 49.1 38.0424 46.261 37.9409 41.3531C37.8427 36.5825 37.7928 34.1627 37.791 34.0929C37.0643 30.193 36.6898 28.1193 36.6674 27.871ZM43.2695 29.3438L43.2465 29.4023C43.2068 36.0778 43.0646 42.2024 42.8202 47.7771C42.7394 49.6248 42.6524 51.2799 42.5594 52.7428C42.4905 53.8153 42.4421 54.466 42.4146 54.6963C42.432 54.6628 42.4421 54.6448 42.4456 54.6423C42.4456 54.686 42.4362 54.7453 42.4174 54.8201C42.4242 56.0943 42.4921 57.6824 42.6214 59.5844C42.6902 60.5715 42.7711 61.6803 42.8641 62.9104H42.8667C42.9424 62.7398 43.0397 62.2686 43.1586 61.4959C43.2672 60.8007 43.3257 60.3486 43.3341 60.1391C43.3532 60.2449 43.4831 61.1393 43.7242 62.8216C44.0377 64.9278 44.3804 67.0622 44.7524 69.2255C44.7488 68.8506 44.7298 67.9692 44.6955 66.5815C44.6628 65.2713 44.6464 64.6135 44.6464 64.6082C44.6464 63.8408 44.6755 62.6558 44.734 61.0536C44.7684 60.1232 44.8057 59.2373 44.8454 58.3948C44.4269 55.0895 44.0927 49.8882 43.8432 42.7917C43.7259 39.2074 43.6389 36.6424 43.5823 35.097C43.4841 32.4791 43.38 30.5612 43.2695 29.3438ZM54.715 25.7391C54.7133 24.6278 54.7046 23.2915 54.6891 21.7309C54.6755 20.3456 54.6626 19.3803 54.6506 18.8351C53.6981 23.8667 53.1663 26.7611 53.0542 27.5183L53.0335 27.6541C53.0335 27.4344 53.0051 26.9029 52.9482 26.0604C52.8881 25.1635 52.8538 24.4469 52.8451 23.9094C52.8089 24.0332 52.6641 24.6701 52.411 25.8202C52.1563 26.983 52.0212 27.6202 52.0054 27.7317L52.0002 27.7659C51.9915 27.1949 51.9022 25.6523 51.7316 23.1377C51.5406 20.3495 51.4424 18.9021 51.4372 18.7963C51.2804 20.4785 51.1347 22.3301 51.0005 24.3513C50.8128 27.2224 50.7167 28.6917 50.7113 28.7587C50.5994 30.2396 50.4662 31.5279 50.3111 32.6237C50.1235 33.9441 49.8693 35.2546 49.549 36.5546C49.575 36.3994 49.537 36.1254 49.4355 35.7325C49.3372 35.358 49.2522 35.128 49.1798 35.0427C49.1798 35.0786 49.1323 35.4486 49.0376 36.1511C48.9445 36.8568 48.8961 37.242 48.8926 37.3065L48.7974 37.3026C48.7887 37.1527 48.7147 36.6269 48.5754 35.7247C48.3857 34.5024 48.2367 33.5307 48.1284 32.8099C48.1162 33.244 48.0673 34.7076 47.981 37.2014C47.9192 39.0131 47.8882 40.2979 47.8882 41.0551C47.8882 42.5074 47.7822 44.5515 47.5703 47.1874C47.3759 49.5803 47.1555 51.7592 46.9092 53.7232V54.8278C46.9865 54.7506 47.183 54.3718 47.4981 53.6922C47.841 52.953 48.0243 52.5643 48.0482 52.5255C48.0586 54.358 48.1061 56.1359 48.1904 57.8598C48.2351 58.7926 48.2816 59.5643 48.33 60.174L48.9859 56.1655C48.9807 57.4577 48.9979 58.4265 49.0376 59.0726C49.0599 59.4422 49.1003 59.7991 49.1591 60.143L49.1741 60.2047C49.3396 60.1144 49.6206 59.4175 50.0164 58.1151L50.019 58.0495L50.1122 58.0534C50.0897 58.4565 50.156 59.2112 50.3111 60.3172C50.4763 61.498 50.6965 62.7281 50.9721 64.0076C51.0013 64.1445 51.0732 64.501 51.1867 65.0773C51.3021 65.6356 51.3958 66.0337 51.468 66.2715C51.4973 66.367 51.55 66.6164 51.6259 67.0195C51.7222 67.3838 51.8468 67.5841 52.0002 67.6204C52.7301 62.1702 53.1393 59.1414 53.2274 58.5344C53.732 54.9654 54.1399 52.5266 54.4515 51.2189V56.5104C54.6687 54.4198 54.8108 51.89 54.8778 48.9205C54.9037 47.817 54.9295 45.1811 54.9554 41.0124C54.9777 37.7974 55.0346 35.274 55.126 33.4415C55.2602 30.8187 55.4952 28.6233 55.831 26.8553C55.8843 23.2813 55.9106 20.5572 55.9106 18.6838C55.8831 19.2886 55.7407 20.3325 55.4822 21.8159C55.2548 23.1187 54.9991 24.4261 54.715 25.7391ZM65.5741 89.8253L65.5715 89.8718C65.5353 89.9286 65.457 90.1251 65.3365 90.4608C65.164 90.9288 64.9715 91.5139 64.7579 92.2168C64.6254 92.646 64.4764 93.0604 64.311 93.461C64.1251 93.916 64.0177 94.1847 63.9883 94.2673C63.8092 94.7945 63.7091 95.6593 63.6884 96.8608L63.9389 96.6323C64.3711 96.3611 64.6933 96.1153 64.905 95.8959C65.1459 95.6473 65.3233 95.3581 65.4373 95.0273C65.5489 94.7017 65.6239 94.2651 65.662 93.7171C65.6928 93.2752 65.7083 92.5903 65.7083 91.6627C65.7083 90.7863 65.6634 90.1741 65.5741 89.8253ZM53.4676 104.362C53.1884 104.05 52.7294 103.59 52.091 102.982C51.9805 102.876 51.283 102.22 49.9985 101.013C49.5405 101.873 48.4555 102.761 46.7438 103.676C46.0792 104.03 45.4289 104.327 44.7937 104.568C44.1893 104.795 43.7543 104.913 43.4892 104.92C43.3238 105.329 43.1974 105.796 43.1095 106.323C43.0458 106.714 43.0141 107.042 43.0141 107.308C43.0141 107.812 43.0836 108.17 43.2232 108.382C43.4058 108.661 43.7473 108.801 44.2483 108.801C44.6203 108.801 45.4339 108.467 46.6895 107.801C47.6382 107.299 48.5631 106.763 49.4639 106.192C49.5654 106.373 49.666 106.563 49.7661 106.762C49.8385 106.87 49.9468 106.924 50.0913 106.924C50.3357 106.924 50.6194 106.721 50.9413 106.312C51.1996 105.987 51.4769 105.539 51.773 104.971V105.052C51.7627 105.342 51.7392 105.702 51.703 106.133C51.6687 106.534 51.6513 106.75 51.6513 106.781C51.6513 107.114 51.6722 107.316 51.7135 107.386C51.7584 107.463 51.8841 107.502 52.091 107.502C52.4094 107.502 52.6883 107.295 52.9276 106.882C53.2479 106.331 53.4279 105.492 53.4676 104.362ZM46.7231 56.6032V56.6808C46.2221 60.9658 45.9713 64.7169 45.9713 67.9343C45.9713 69.7718 46.1118 71.3563 46.3927 72.687C46.6836 74.067 47.0436 74.7568 47.4723 74.7568C47.7531 74.7568 48.0931 74.5347 48.4926 74.0903C48.8456 73.6431 49.0411 73.4199 49.079 73.4199C49.0806 73.4199 49.2493 73.5838 49.5849 73.9122C49.9414 74.261 50.1802 74.474 50.3007 74.5516V73.3112C51.5044 74.3167 52.3819 74.9977 52.933 75.3543C53.3153 75.6026 53.7268 75.7972 54.1674 75.9394C54.1056 75.7972 53.6363 75.0362 52.7598 73.6561C51.8315 72.201 51.2301 71.2075 50.9564 70.675C50.4502 69.6931 50.0199 68.1565 49.6653 66.0658C49.5017 65.0399 49.38 64.3127 49.3008 63.8838C49.1683 63.1707 49.0322 62.665 48.8926 62.3677V62.4065C48.8616 62.5461 48.6691 63.0797 48.3143 64.0076C47.9526 64.9482 47.7348 65.4772 47.6607 65.5933C47.5987 65.4977 47.5559 65.1665 47.5317 64.6005C47.511 63.8694 47.4911 63.3136 47.4723 62.9337L47.3792 62.9302C47.3517 62.9947 47.2915 63.1817 47.1985 63.492C47.1484 63.6599 47.0838 63.881 47.0048 64.1547L46.9893 64.0461C46.979 63.832 46.8902 61.3509 46.7231 56.6032ZM61.4179 66.1202C61.0064 65.8359 60.5933 64.8914 60.1782 63.2864C59.7891 61.7798 59.4479 59.8919 59.1551 57.6231C59.0225 61.6934 58.8284 65.1214 58.5718 67.9072C58.2512 71.3831 57.8882 73.1211 57.4816 73.1211C57.3594 73.1211 57.0349 72.2543 56.5078 70.5201C56.2338 69.6159 56.0479 69.0188 55.9496 68.7289C55.7673 68.1861 55.6432 67.9153 55.5774 67.9153C55.3725 67.9153 55.2214 68.0976 55.1232 68.4619C55.0921 68.5783 55.0421 68.7871 54.9732 69.0897C54.8992 69.3944 54.8193 69.6698 54.7333 69.9153C54.6231 69.2667 54.519 68.4154 54.4207 67.3605C54.3726 66.8438 54.2889 65.8218 54.17 64.2944V67.7058C54.3836 70.117 54.5566 71.8099 54.6891 72.7836C54.7079 72.9236 54.8106 73.5313 54.9965 74.6063C55.0498 74.4899 55.1422 74.2402 55.2731 73.8575C55.411 73.4572 55.5121 73.137 55.5774 72.8968H55.6782C55.8885 74.0751 56.1005 74.9367 56.3139 75.4819C56.3863 75.6653 56.4627 75.8233 56.5437 75.9549C56.5867 76.0247 56.6401 76.1048 56.7038 76.1951C56.7383 76.1175 57.0182 75.6357 57.5437 74.7494C58.0534 73.8861 58.3396 73.4072 58.4035 73.3112C58.3431 73.4329 58.3065 73.5944 58.2926 73.7962C58.2754 74.0466 58.2444 74.2493 58.1998 74.4042C58.5217 74.0116 59.0279 71.9005 59.7186 68.0705L59.7209 68.1555C59.7985 68.944 59.974 69.958 60.248 71.1983C60.5806 72.7025 60.9084 73.7528 61.2322 74.3502C61.251 73.2026 61.3507 71.5228 61.5314 69.3108C61.7502 66.8192 61.9001 65.0336 61.9812 63.9533C61.8984 64.0669 61.7882 64.421 61.6505 65.0156C61.5991 65.2402 61.521 65.6084 61.4179 66.1202ZM57.5587 50.0991V50.2536C57.2917 52.024 57.0295 53.5578 56.7712 54.855C56.4871 56.2868 56.277 57.0677 56.1409 57.1967V54.0759L56.0479 54.072C56.0479 54.801 55.9767 56.6769 55.8336 59.7007C55.6907 62.7218 55.6188 64.3846 55.619 64.6897C55.6188 64.7415 55.6216 64.792 55.6265 64.841C55.8747 63.4634 56.0864 62.24 56.2622 61.1703C56.4979 59.7282 56.6147 58.8751 56.6112 58.6113C56.63 58.6244 56.6601 58.6515 56.7017 58.6928C56.7583 59.0211 56.9141 60.3705 57.1691 62.7401C57.4229 65.1224 57.5711 66.6869 57.6134 67.4342C57.6076 66.7902 57.6008 65.9026 57.5928 64.7712C57.5874 63.802 57.5845 63.2413 57.5845 63.0889L57.6287 52.8592C57.6287 52.1175 57.6217 51.5278 57.6078 51.0912C57.601 50.8944 57.5845 50.564 57.5587 50.0991ZM62.9653 18.8076C62.9447 18.195 62.9247 17.8553 62.9057 17.7883C62.9489 18.6827 62.7259 20.9504 62.2368 24.5915C61.7875 27.9486 61.3309 30.9051 60.8677 33.4609C60.923 34.6265 60.9504 35.3012 60.9504 35.4846C60.9504 35.6965 60.8393 37.4447 60.6172 40.7296C60.3949 44.0116 60.284 46.1922 60.284 47.2724C60.284 47.2985 60.2859 47.5623 60.2892 48.0638C60.291 48.8133 60.292 49.8286 60.292 51.1102C60.5176 49.3737 60.8299 47.3775 61.2292 45.1215C61.2155 45.4628 61.1253 47.0647 60.9584 49.9281L60.9528 50.0134C60.9707 49.774 61.086 49.1853 61.299 48.2462C61.5349 47.246 61.6684 46.6693 61.6994 46.517C61.6926 46.6309 61.5394 48.4077 61.2395 51.8473C60.9418 55.238 60.7514 57.3889 60.6689 58.3013V59.8714C60.8428 59.1682 61.0148 58.471 61.1854 57.7783C61.5246 56.3958 61.6961 55.7042 61.6994 55.7042L61.8883 55.7123C61.8919 55.7613 61.9081 55.9603 61.9372 56.3091C61.9701 56.7305 62.0009 57.1498 62.0303 57.5685C62.2697 50.1802 62.5546 44.0169 62.8852 39.078C63.1644 34.9277 63.4793 31.5783 63.8306 29.0302L63.7373 29.0264C63.7133 29.3572 63.5834 29.8647 63.3475 30.5492C63.1461 31.1385 62.9712 31.5773 62.8234 31.864V31.7123C62.9456 30.4099 63.0067 27.1089 63.0067 21.8081C63.0067 20.6221 62.9928 19.6215 62.9653 18.8076Z" fill="#4FA9E2"/>
<path d="M65.0911 112.003L65.1275 111.972C65.5407 111.502 65.747 111.262 65.747 111.255C65.747 111.229 65.7395 111.229 65.7242 111.255C65.7068 111.278 65.6979 111.276 65.6979 111.25C65.8753 111.08 66.076 110.873 66.3 110.63C66.7493 110.142 67.0912 109.71 67.3253 109.332C67.5234 109.014 67.811 108.524 68.1882 107.862C68.6272 107.095 69.0097 106.404 69.3352 105.789L69.2422 105.785C69.2405 105.785 68.9858 106.166 68.4775 106.928C67.9403 107.735 67.6068 108.22 67.4778 108.386C67.1403 108.823 66.3639 109.714 65.148 111.061C63.9721 112.363 63.2642 113.123 63.0248 113.34C63.0454 113.348 63.0668 113.353 63.0892 113.356C63.1632 113.335 63.4945 113.091 64.0837 112.623C64.54 112.261 64.9551 111.924 65.3287 111.611L65.2643 111.681C65.2126 111.733 65.1861 111.76 65.1844 111.762C65.136 111.827 65.105 111.907 65.0911 112.003ZM59.2305 96.4151C59.3421 96.6426 59.4859 96.8492 59.6614 97.0354C59.8062 97.1878 59.9141 97.2735 59.9846 97.2915C60.0586 97.2527 60.229 97.1088 60.4959 96.8609C60.8108 96.5664 61.0247 96.3234 61.1365 96.1322L61.232 96.1358C61.1476 96.5364 61.1053 96.918 61.1053 97.2802C61.1053 98.104 61.2383 98.8147 61.5034 99.4114C61.7377 99.9337 62.058 100.338 62.4645 100.625C63.0377 99.7003 63.4153 99.0524 63.5982 98.6828C63.7408 98.3908 63.8127 98.1555 63.8127 97.9774C63.7025 97.8794 63.5824 97.7732 63.4534 97.6597C63.1933 97.4244 63.0194 97.2513 62.9317 97.1402C62.8196 97.1402 62.7244 97.051 62.645 96.8725C62.5658 96.694 62.5263 96.4786 62.5263 96.225C62.4885 95.2019 62.4615 94.6009 62.446 94.4225C62.4236 94.1537 62.3287 93.3658 62.1618 92.0585C61.9158 92.5519 60.9384 94.0038 59.2305 96.4151ZM39.5476 96.7448C39.7767 96.5463 40.0493 96.2821 40.3661 95.9541C40.528 95.7863 40.6504 95.7023 40.7331 95.7023C40.9174 95.7023 41.0285 95.9771 41.0664 96.5276C41.0922 96.8972 41.0903 97.7115 41.061 98.9702C42.0804 99.4714 43.0249 99.8653 43.8946 100.152C44.4541 100.338 44.8969 100.456 45.2223 100.505L45.3152 100.509C45.0759 100.576 44.487 100.708 43.5484 100.904C42.6512 101.093 41.7721 101.27 40.9113 101.436C40.8939 101.805 40.8854 102.076 40.8854 102.249C40.8854 102.823 40.9968 103.529 41.2189 104.366C41.4755 105.325 41.7441 105.804 42.0247 105.804C42.3156 105.804 42.5816 105.692 42.8228 105.467C43.0481 105.201 43.199 105.026 43.2747 104.943L43.6234 104.56L43.489 104.92C43.7543 104.912 44.189 104.795 44.7935 104.568C45.4289 104.327 46.0789 104.03 46.7437 103.676C48.4552 102.761 49.5402 101.873 49.9985 101.013C48.1643 99.5271 46.7367 97.9439 45.7156 96.2645C45.3713 95.6984 45.0698 95.1144 44.8116 94.512C44.5824 93.9329 44.4344 93.5598 44.3672 93.3916C43.8025 93.4512 42.8065 93.1553 41.3789 92.5043C40.1804 91.9562 39.3854 91.5298 38.9946 91.2251C38.6071 91.5118 38.236 91.7947 37.8812 92.074C37.344 92.4951 36.9764 92.7818 36.7783 92.9338C37.2225 93.8025 37.7653 94.6609 38.4059 95.5084C38.9793 96.2659 39.3598 96.6778 39.5476 96.7448Z" fill="#8ABCD7"/>
<path d="M37.2947 70.5199L37.2461 70.4659C37.2461 70.5227 37.2358 70.6793 37.2151 70.935C37.1944 71.1906 37.1838 71.3691 37.1838 71.47C37.1838 71.7694 37.24 71.987 37.3519 72.121C37.3897 72.1647 37.4595 72.2374 37.561 72.3383C37.6679 72.4518 37.7662 72.5749 37.8555 72.7064C37.6696 73.05 37.4724 73.3021 37.264 73.4622C37.1075 73.5839 36.9627 73.6446 36.8302 73.6446C36.8076 73.6446 36.6812 73.5892 36.4504 73.4777C36.2868 73.4777 36.1085 73.877 35.9158 74.6758C35.7985 75.1618 35.6006 76.0816 35.3217 77.4358C35.0376 78.7178 34.7516 79.7409 34.4639 80.5059C34.068 81.5526 33.6238 82.2633 33.1313 82.6382C33.0589 81.8757 32.9555 81.0419 32.8213 80.1377C32.7059 79.3674 32.6326 78.9411 32.6016 78.8585V78.7228C32.5947 78.8077 32.5113 79.2553 32.3513 80.064C32.1513 81.067 32.0481 81.5861 32.0411 81.6225L32.0385 81.6263C31.9438 81.4144 31.8482 81.1312 31.7518 80.7771C31.5711 80.1155 31.3257 79.0366 31.0155 77.5406L31.0104 79.1879C30.6092 78.2498 30.0857 74.7146 29.4401 68.5815C29.3832 69.8716 29.2822 72.0734 29.1377 75.1875C29.0239 78.0975 28.9673 80.7799 28.9673 83.2349C28.9673 85.6874 29.031 87.8973 29.1586 89.8638C29.2789 91.722 29.4909 93.855 29.794 96.2642C30.24 95.6332 30.7996 94.4951 31.4729 92.8488C31.6761 92.3526 32.1212 91.1959 32.8084 89.3792C32.896 89.449 32.9804 89.5474 33.0612 89.6741C33.1059 89.7435 33.1707 89.8469 33.2551 89.9841C33.4222 90.214 33.6668 90.329 33.9888 90.329C34.483 90.329 35.0451 89.9502 35.6756 89.1934C35.8495 88.9839 36.0939 88.6622 36.409 88.2277C36.7018 87.8222 36.9098 87.5485 37.0339 87.406C37.776 86.5557 38.3661 85.8517 38.8037 85.2935C39.4476 84.4664 39.9101 83.7762 40.1907 83.2233C40.4043 82.7119 40.5627 82.3578 40.6658 82.161C40.84 81.8305 41.0559 81.6651 41.3142 81.6651C41.3471 81.6651 41.4124 81.8238 41.5106 82.1419C41.5743 82.3483 41.7095 82.7891 41.9163 83.4638L41.9238 83.4909C42.0255 82.7464 42.0979 82.1173 42.1409 81.6031C42.2493 80.3204 42.3724 78.2526 42.5103 75.4005C42.3353 75.4418 42.2319 75.4626 42.2004 75.4626C41.6526 75.4626 40.9664 75.0285 40.1415 74.1602C39.4528 73.4365 38.5038 72.2233 37.2947 70.5199ZM65.0313 101.358C65.0313 100.704 64.8008 99.9789 64.3393 99.1829C64.1982 99.4852 63.7771 100.343 63.0761 101.757C62.7988 102.318 62.6606 102.691 62.6606 102.877C62.6606 103.068 62.6766 103.196 62.7095 103.261C62.7542 103.349 62.8472 103.393 62.9882 103.393C63.3208 103.393 63.7471 103.127 64.2671 102.594C64.7766 102.072 65.0313 101.66 65.0313 101.358ZM45.3155 100.509L45.2225 100.505C44.897 100.456 44.454 100.338 43.8945 100.152C43.0248 99.865 42.0803 99.4711 41.0609 98.9695C41.0557 99.3832 41.0378 99.7955 41.007 100.206C40.988 100.449 40.956 100.859 40.9114 101.435C41.7722 101.27 42.6516 101.093 43.5486 100.904C44.4872 100.708 45.0761 100.576 45.3155 100.509ZM49.252 76.5365C49.19 76.5365 49.0737 76.6268 48.9033 76.8081C48.6535 77.0687 48.4753 77.2433 48.3684 77.3311C47.8312 77.773 47.3267 77.8054 46.8548 77.4277C46.4588 76.9939 45.9326 76.2223 45.2765 75.1138C44.643 74.0413 44.1528 73.1067 43.8068 72.3111C43.5761 72.8588 43.3488 73.5141 43.1251 74.2766C42.8772 75.124 42.7529 75.7222 42.7529 76.0713C42.7529 76.5802 42.8194 77.3142 42.9519 78.2731C43.119 79.4902 43.2022 80.1028 43.2022 80.1105C43.2849 80.9866 43.3754 82.0111 43.4736 83.1848L43.5845 84.3786C43.6104 84.7013 43.6494 84.9433 43.7011 85.1034C43.7612 85.2896 43.844 85.3827 43.949 85.3827C44.2366 85.3827 44.6378 84.9408 45.1527 84.0566C45.4128 83.5918 45.5978 83.2606 45.708 83.0645C45.899 82.7284 46.0353 82.5204 46.1162 82.4403C46.0593 82.6572 45.9326 83.0825 45.7364 83.7156C45.5247 84.398 45.3628 84.9447 45.2509 85.3555C44.8531 86.8181 44.6542 88.0588 44.6542 89.077C44.6542 89.6843 44.7332 90.1368 44.8918 90.4337C45.0864 90.8005 45.4161 90.9842 45.8812 90.9842C46.2358 90.9842 46.7944 90.4739 47.5572 89.4529C47.5847 89.4166 47.8672 89.0237 48.4046 88.2743C48.7024 87.8609 48.9136 87.5961 49.0377 87.4797C49.0393 87.5418 49.06 87.8028 49.0997 88.263C49.0997 88.2993 49.0927 88.361 49.0791 88.4489C49.0393 88.6968 48.9977 88.9722 48.9545 89.2745C50.2049 88.998 51.3501 88.3907 52.39 87.4525C53.1873 86.7317 53.7316 86.0351 54.0228 85.3629L54.0846 85.3672C54.0655 85.5996 54.0564 85.7717 54.0564 85.8828C54.0564 86.3737 54.1339 86.7214 54.289 86.9253C54.4267 87.109 54.6453 87.2007 54.9451 87.2007C55.3185 87.2007 55.6494 87.0755 55.9368 86.8248C56.0987 86.6851 56.349 86.3853 56.6884 85.9251C56.7245 85.8736 56.9243 85.7082 57.2878 85.4292C57.646 85.1499 57.8577 84.9616 57.923 84.8628C58.0474 84.6717 58.5308 83.4959 59.3746 81.3354C60.277 79.0172 60.7282 77.6697 60.7282 77.2926C60.7282 77.189 60.6462 76.8028 60.4829 76.133C60.2848 75.3297 60.18 74.898 60.1678 74.8387C59.7166 75.5078 59.4181 75.9444 59.2717 76.1486C58.9857 76.5418 58.7336 76.844 58.5148 77.056C58.0307 77.5265 57.4523 77.7614 56.7788 77.7614C56.6825 77.7614 56.5267 77.7458 56.3114 77.7148C56.098 77.6838 55.9394 77.6682 55.8362 77.6682C55.5108 77.6682 55.1818 77.7871 54.8492 78.0252C54.6514 78.1673 54.3673 78.4307 53.9969 78.8159C53.6268 79.1957 53.3408 79.4581 53.1394 79.6027C52.8055 79.8404 52.4736 79.9592 52.1449 79.9592C51.8485 79.9592 51.5534 79.7811 51.2589 79.4242C51.0575 79.1788 50.8155 78.7873 50.5332 78.2498C50.1958 77.6062 49.9815 77.2136 49.89 77.0715C49.6576 76.7146 49.4447 76.5365 49.252 76.5365Z" fill="#5DA9DB"/>
<path d="M34.8566 32.5419C34.3986 25.8044 34.1641 22.3919 34.1537 22.3041C33.2755 36.6213 32.7118 47.9863 32.4619 56.3984C32.3896 58.7966 32.3285 61.5873 32.2784 64.7712C32.2286 67.7972 32.1811 70.0162 32.1365 71.4273C32.3087 72.3503 32.43 73.0464 32.5007 73.5169C32.5592 73.92 32.5928 74.2459 32.6013 74.4938L32.6091 74.4511C32.6763 74.296 32.7907 73.8368 32.9526 73.0747C33.1333 72.2215 33.3211 71.2256 33.5157 70.0861C34.0325 67.0414 34.419 64.0285 34.6754 61.0463C34.877 61.2942 35.1407 62.7469 35.4662 65.4032C35.5712 66.2638 35.673 67.1761 35.771 68.14C35.8518 68.9205 35.8941 69.3497 35.8976 69.4269V69.3493C35.9061 68.7082 36.1094 65.8324 36.5072 60.7204C36.6104 59.3559 36.6837 58.3698 36.7267 57.7625C36.8024 56.7182 36.8431 56.0541 36.8482 55.7699V55.6849C36.5554 56.1839 36.2739 56.5712 36.0034 56.8473C35.7503 57.1034 35.5583 57.2148 35.4274 57.1813C35.4533 56.1709 35.4963 55.42 35.5567 54.9291C35.6013 54.5517 35.6211 54.2728 35.6159 54.0919C35.6039 54.1744 35.4138 54.7986 35.0451 55.9642C34.6698 57.1527 34.4533 57.8041 34.3965 57.9177L34.3011 57.7583V48.8814C34.3579 47.6562 34.4374 45.5222 34.5389 42.4775C34.5835 41.1028 34.6895 37.7908 34.8566 32.5419Z" fill="#89C5EB"/>
<path d="M38.0932 35.6006C37.9022 34.6445 37.8011 34.1416 37.7908 34.0926C37.7927 34.1624 37.8425 36.5828 37.9407 41.3535C38.0422 46.261 38.1033 49.1 38.124 49.8699L38.4288 49.8777L38.4417 49.5211C38.5778 50.418 38.7982 52.3394 39.103 55.2853C39.3422 57.6038 39.5286 58.915 39.6611 59.2201C39.6973 59.1555 39.7662 58.9125 39.8677 58.4915C39.9678 58.0778 40.0289 57.8545 40.0512 57.8207L40.1311 57.8245C40.1434 57.9617 40.3699 59.2656 40.8105 61.7361C41.2342 64.1159 41.4805 65.4794 41.5494 65.8257L41.645 65.8296L41.7378 56.0026C41.7345 55.8503 41.6699 54.107 41.5442 50.7731C41.4201 47.5401 41.3583 45.7288 41.3583 45.3384C41.3513 45.2171 41.2472 43.8899 41.0455 41.3574C40.839 38.7366 40.7245 37.3281 40.7022 37.132L40.6815 37.1436C40.6004 37.3115 40.5532 37.928 40.5393 38.9927C40.5187 40.5071 40.505 41.3288 40.498 41.4579C40.4482 42.3392 40.3302 43.6649 40.1443 45.4354C39.965 47.1307 39.8419 48.1411 39.7749 48.4666C39.5302 46.0247 39.3251 42.9286 39.1599 39.1789C38.9721 34.9154 38.9164 31.3682 38.9921 28.5376C38.9897 28.5947 38.8899 29.8531 38.6922 32.3133C38.4925 34.8512 38.3877 36.2443 38.3773 36.4922C38.2742 36.3399 38.1795 36.0425 38.0932 35.6006Z" fill="#ADD7F1"/>
<path d="M59.9846 97.291C60.0464 97.3171 60.1078 97.338 60.1679 97.3535V97.8881L60.1137 98.5162C60.0707 98.9063 60.049 99.1031 60.049 99.1052C60.0387 99.222 60.0251 99.3429 60.0079 99.4699C59.8718 100.628 59.8037 101.24 59.8037 101.307C59.8037 101.984 59.8241 102.407 59.8657 102.575C59.9156 102.782 60.0432 102.885 60.2481 102.885C60.539 102.885 60.9298 102.631 61.4205 102.121C61.9011 101.625 62.2489 101.126 62.4641 100.625C62.0578 100.338 61.7375 99.9337 61.503 99.4117C61.2381 98.8146 61.1056 98.104 61.1056 97.2798C61.1056 96.9176 61.1477 96.5363 61.232 96.136L61.1364 96.1322C61.0243 96.3233 60.8109 96.5663 60.4958 96.8608C60.229 97.1087 60.0587 97.2526 59.9846 97.291ZM61.0125 78.8972C60.8144 79.3624 60.3935 80.3855 59.7496 81.9676C59.524 82.5203 59.1029 83.4467 58.4865 84.7471C58.3074 85.1241 58.0489 85.6217 57.7115 86.2392C57.3947 86.8204 57.1717 87.2525 57.0424 87.5339C56.6103 88.4823 56.3938 89.4994 56.3938 90.5849C56.3938 92.2545 56.7085 93.5206 57.3369 94.3839C57.6523 94.8153 57.9688 95.0801 58.2875 95.1785C58.3324 95.1785 58.3822 95.1644 58.4374 95.1358C58.4872 95.1097 58.6369 95.03 58.8867 94.8957C58.816 95.0738 58.8282 95.3348 58.9227 95.6786C59.0019 95.9653 59.1046 96.2108 59.2305 96.415C60.9385 94.0041 61.9156 92.5514 62.1619 92.058C62.1344 91.7064 62.1173 91.3887 62.1102 91.1044C61.8588 91.2102 61.624 91.2631 61.4052 91.2631C60.8302 91.2631 60.3804 90.9919 60.0566 90.4491C59.7656 89.9607 59.6204 89.3407 59.6204 88.5884C59.6204 88.2601 59.6977 87.6376 59.8526 86.7199C59.8939 86.4667 60.061 85.5392 60.3538 83.9366C60.829 81.3215 61.0487 79.6414 61.0125 78.8972ZM48.6708 91.2941C48.59 91.4493 48.5491 91.8627 48.5491 92.5349C48.5491 92.7905 48.7234 93.2582 49.0712 93.9382C49.4792 94.7366 49.9819 95.5051 50.5795 96.2447C51.0807 96.8647 51.8555 97.3454 52.9043 97.6868C53.6723 97.9347 54.3517 98.0588 54.9422 98.0588C55.0938 98.0588 55.4764 98.007 56.0893 97.9036C56.0275 97.9555 55.8294 98.1001 55.4952 98.3378C55.1335 98.6065 54.8193 98.8739 54.5524 99.1401C53.712 99.9724 53.2916 100.814 53.2916 101.664C53.2916 102.23 53.4589 102.691 53.7931 103.048C54.1169 103.394 54.55 103.594 55.0922 103.648C55.3556 103.677 55.5805 103.739 55.7664 103.835C55.8456 103.876 55.9936 103.978 56.2105 104.141C56.6082 104.438 57.131 104.627 57.7785 104.707C57.8111 104.518 57.8276 104.348 57.8276 104.195C57.8172 104.056 57.8071 103.912 57.7968 103.765C57.7761 103.476 57.7658 103.121 57.7658 102.703C57.7658 101.855 57.9782 101 58.4036 100.136C58.6341 99.7023 58.8007 99.387 58.9022 99.1909C59.0797 98.8471 59.1965 98.5589 59.2533 98.3262C59.0416 98.0419 58.6585 97.7407 58.1042 97.423C57.441 97.0431 56.979 96.7342 56.717 96.4965C56.2021 96.0338 55.8122 95.4342 55.5469 94.6978C55.2179 93.7854 55.0536 92.6096 55.0536 91.17C55.0915 90.0488 55.1112 89.3728 55.1129 89.1428C54.8287 89.7783 54.3268 90.404 53.6072 91.0191C52.8371 91.6754 52.1645 92.0013 51.5895 91.996V91.9998C51.6205 92.0125 51.6386 92.0323 51.6436 92.058L51.6229 92.112C51.6041 92.0993 51.593 92.0619 51.5895 91.9998L51.5869 92.0348C51.3167 91.996 50.837 91.8316 50.148 91.5424C49.5163 91.2578 49.1967 91.116 49.1899 91.116C49.0313 91.116 48.9239 91.1238 48.8673 91.1393C48.7794 91.1626 48.714 91.2141 48.6708 91.2941Z" fill="#61ADE8"/>
<path d="M36.9464 95.7756C37.8452 96.6154 38.4565 97.0354 38.7803 97.0354C38.8614 97.0354 38.9913 97.0005 39.1704 96.9306C39.3391 96.8636 39.4649 96.8016 39.5473 96.7444C39.3598 96.6774 38.9794 96.2655 38.4057 95.508C37.7651 94.6605 37.2227 93.8024 36.7783 92.9338C36.2996 93.3009 35.9518 93.588 35.7349 93.7947C35.3542 94.159 35.0643 94.5374 34.8645 94.9303C34.9952 94.8347 35.1373 94.7455 35.2906 94.6629C35.4783 94.5621 35.6118 94.5116 35.691 94.5116C35.6943 94.5116 36.1128 94.9327 36.9464 95.7756ZM40.9035 89.984C40.325 90.2707 39.6888 90.684 38.9946 91.2247C39.3857 91.5294 40.1802 91.9558 41.3787 92.5039C42.8063 93.1549 43.8025 93.4508 44.3674 93.3912C43.8817 92.1998 43.4867 91.3383 43.1819 90.8057C42.7358 90.0203 42.3344 89.6271 41.9782 89.6271C41.7371 89.6271 41.3787 89.7463 40.9035 89.984Z" fill="#67A7D2"/>
</g>
<mask id="mask2_114_695" style="mask-type:luminance" maskUnits="userSpaceOnUse" x="28" y="81" width="67" height="57">
<path d="M34.3105 81.0844L94.3899 96.3461L88.8295 137.571L28.7501 122.309L34.3105 81.0844Z" fill="white"/>
</mask>
<g mask="url(#mask2_114_695)">
<g opacity="0.64">
<path d="M60.0952 113.836C59.8554 113.538 59.6989 113.257 59.6268 112.992C59.8148 114.105 60.2394 115.006 60.9006 115.697C61.3614 116.169 61.7067 116.725 61.9364 117.365C61.9981 117.549 62.1359 118.072 62.35 118.935C62.4877 119.512 62.667 119.937 62.889 120.21C63.2022 120.606 63.6818 120.885 64.3281 121.049C65.3145 121.3 66.1936 121.227 66.9653 120.832C67.8928 120.348 68.4421 119.471 68.6131 118.204C68.6504 117.927 68.6499 117.72 68.611 117.582C68.5261 117.412 68.4478 117.245 68.3769 117.079C69.226 117.334 70.0179 117.032 70.7517 116.173C71.4321 115.39 71.8503 114.421 72.0059 113.268C72.128 112.362 72.1151 111.659 71.9671 111.157C71.8179 110.666 71.507 110.227 71.0344 109.841C71.0275 109.839 71.0213 109.832 71.0157 109.821C70.9891 109.805 70.9689 109.795 70.9551 109.791C70.8457 109.536 70.5514 109.24 70.0726 108.901C69.4415 108.465 69.1017 108.216 69.0525 108.154C69.5157 108.716 69.9283 109.358 70.2907 110.081C70.6543 110.794 70.6914 111.612 70.4016 112.535C70.1121 113.457 69.8374 114.082 69.5776 114.411C69.2645 114.814 68.6497 115.057 67.733 115.14C67.7862 115.44 67.8185 115.625 67.8301 115.697C67.8519 115.91 67.8501 116.112 67.8244 116.302C67.6997 117.227 67.3362 118.003 66.7342 118.628C66.1694 119.195 65.6439 119.416 65.1577 119.293C64.442 119.111 63.863 118.584 63.4201 117.713C62.9375 116.762 62.8335 115.749 63.1075 114.675C62.8903 115.221 62.7319 115.517 62.6327 115.56C62.5859 115.588 62.3643 115.551 61.9683 115.451C61.5027 115.332 60.8786 114.794 60.0952 113.836ZM62.978 113.4C62.9365 113.281 62.8981 113.059 62.863 112.735C62.8509 112.663 62.8399 112.586 62.8294 112.504L62.8004 112.719C62.7631 112.995 62.8049 113.321 62.9267 113.697C63.0686 114.138 63.2752 114.392 63.5462 114.461C63.7198 114.505 63.9046 114.439 64.1011 114.262C64.201 114.159 64.2854 114.067 64.3539 113.986C64.1432 114.11 63.9232 114.143 63.694 114.085C63.3465 113.996 63.1079 113.768 62.978 113.4Z" fill="#A6DEFF"/>
<path d="M60.2051 107.667C60.4246 107.318 60.6315 107.036 60.8261 106.819C60.6323 106.977 60.4234 107.195 60.199 107.473C59.5912 108.196 59.2534 108.81 59.1852 109.316C59.0232 110.517 59.0433 111.459 59.246 112.141L59.4289 112.543L59.4536 112.519C59.1842 111.8 59.099 111.074 59.198 110.34C59.3214 109.424 59.6572 108.533 60.2051 107.667Z" fill="#C4EDFF"/>
<path d="M66.687 103.796L66.6559 103.789C66.5554 103.201 66.3347 102.627 65.9933 102.067C65.6284 101.472 65.2581 101.126 64.8832 101.031C64.1118 100.835 63.4113 101.076 62.781 101.754C62.1614 102.405 61.7803 103.26 61.6376 104.318C61.5437 105.014 61.5282 105.661 61.5914 106.259C61.5932 106.299 61.5997 106.33 61.6111 106.353C61.6128 106.393 61.6152 106.428 61.6184 106.458C61.5628 106.444 61.5019 106.443 61.4355 106.456C61.257 106.499 61.054 106.62 60.8259 106.819C60.6316 107.036 60.4247 107.318 60.2052 107.667C59.6572 108.533 59.3215 109.424 59.198 110.339C59.099 111.074 59.184 111.8 59.4537 112.519L59.429 112.543L59.61 112.958L59.6119 112.944C59.6109 112.954 59.6135 112.959 59.6202 112.961C59.6189 112.97 59.6212 112.981 59.6268 112.992C59.6988 113.257 59.8551 113.538 60.095 113.836C60.8783 114.794 61.5026 115.332 61.9682 115.451C62.3642 115.551 62.5856 115.588 62.6324 115.56C62.7317 115.516 62.89 115.222 63.1073 114.675C62.8332 115.749 62.9372 116.762 63.4199 117.713C63.8627 118.584 64.4418 119.111 65.1574 119.293C65.6437 119.416 66.1693 119.195 66.7341 118.628C67.3361 118.002 67.6994 117.227 67.8241 116.302C67.8498 116.112 67.8518 115.91 67.83 115.697C67.8184 115.625 67.7859 115.44 67.7327 115.14C68.6494 115.058 69.2642 114.814 69.5773 114.411C69.8371 114.082 70.1118 113.457 70.4014 112.535C70.6911 111.612 70.6542 110.794 70.2907 110.081C69.9282 109.358 69.5154 108.715 69.0523 108.154C69.1015 108.216 69.4414 108.465 70.0725 108.901C70.5513 109.24 70.8454 109.536 70.9548 109.791C71.0053 109.735 71.0371 109.713 71.0496 109.726C71.0618 109.69 71.0786 109.645 71.1003 109.591C71.1029 109.572 71.1088 109.554 71.1185 109.537C71.1197 109.527 71.1244 109.518 71.1325 109.511C71.216 109.266 71.2725 109.034 71.3021 108.814C71.4269 107.89 71.3045 106.932 70.9353 105.941C70.442 104.642 69.8591 103.878 69.1859 103.647C68.513 103.417 67.9316 103.358 67.4424 103.471C66.9518 103.592 66.6998 103.701 66.687 103.796ZM67.3418 105.575C67.5413 105.961 67.5934 106.507 67.4982 107.212C67.3812 108.08 67.1219 108.724 66.7201 109.144C66.3642 109.547 65.9742 109.694 65.5505 109.587C65.4395 109.558 65.2979 109.488 65.1262 109.375C64.9603 109.274 64.8358 109.213 64.7524 109.192C65.2297 109.116 65.6211 108.929 65.927 108.632C66.2259 108.334 66.4084 107.887 66.4741 107.292C66.5332 106.696 66.5102 106.306 66.406 106.121C66.2888 105.924 66.0461 105.778 65.6779 105.685C65.414 105.618 65.1257 105.678 64.8132 105.864C64.5322 106.03 64.2934 106.255 64.0967 106.54C64.0686 106.484 63.9196 106.017 63.6497 105.14C63.4534 104.518 63.206 104.169 62.9073 104.094C62.7406 104.051 62.5806 104.065 62.4274 104.134C62.3819 104.152 62.3194 104.191 62.2397 104.249C62.279 104.171 62.317 104.101 62.3539 104.042C62.4915 103.82 62.6264 103.672 62.7587 103.597C62.9295 103.503 63.1511 103.485 63.4231 103.544C63.7024 103.605 63.9114 103.787 64.0503 104.088C64.1767 104.377 64.331 104.751 64.5133 105.211C64.7725 104.834 65.0621 104.631 65.3818 104.604C65.5064 104.586 65.7355 104.62 66.0688 104.704C66.694 104.863 67.1185 105.153 67.3418 105.575ZM62.8627 112.735C62.8978 113.059 62.9362 113.281 62.9777 113.4C63.1076 113.768 63.3462 113.996 63.6937 114.085C63.9229 114.143 64.1429 114.11 64.3536 113.986C64.2851 114.067 64.2007 114.159 64.1008 114.262C63.9043 114.439 63.7195 114.505 63.5459 114.461C63.2749 114.392 63.0685 114.138 62.9266 113.697C62.8049 113.321 62.7628 112.995 62.8001 112.719L62.8291 112.504C62.8396 112.586 62.8506 112.663 62.8627 112.735ZM64.591 113.824L64.5699 113.819C64.5574 113.806 64.5449 113.793 64.5321 113.78L64.5948 113.796C65.1184 113.909 65.6376 113.735 66.1522 113.274C66.6836 112.798 66.9205 112 66.863 110.881C66.9388 110.96 67.0739 111.103 67.2688 111.31C67.4509 111.504 67.5022 111.897 67.4225 112.488C67.3441 113.069 67.1789 113.575 66.9268 114.004C66.6752 114.433 66.3025 114.585 65.8094 114.459C65.6495 114.419 65.4394 114.326 65.1786 114.181C64.9433 114.062 64.7474 113.943 64.591 113.824Z" fill="#EEF9FF"/>
<path d="M64.5949 113.796L64.591 113.824C64.7475 113.943 64.9436 114.062 65.1788 114.181C65.4395 114.326 65.6498 114.419 65.8095 114.459C66.3026 114.585 66.6753 114.433 66.9271 114.004C67.179 113.575 67.3442 113.069 67.4226 112.488C67.5023 111.897 67.4512 111.504 67.2689 111.31C67.0742 111.103 66.9389 110.96 66.8633 110.882C66.9206 112 66.6839 112.798 66.1525 113.275C65.6377 113.735 65.1185 113.909 64.5949 113.796ZM67.4983 107.212C67.5935 106.507 67.5414 105.961 67.3419 105.575C67.1186 105.154 66.6943 104.863 66.069 104.704C65.7356 104.62 65.5065 104.586 65.3821 104.604C65.0622 104.631 64.7726 104.834 64.5134 105.211C64.3312 104.751 64.1768 104.377 64.0506 104.088C63.9117 103.787 63.7027 103.605 63.4234 103.544C63.1512 103.485 62.9296 103.503 62.7588 103.597C62.6267 103.672 62.4916 103.82 62.354 104.042L62.4277 104.134C62.5809 104.065 62.7407 104.051 62.9074 104.094C63.2063 104.17 63.4537 104.518 63.65 105.14C63.9197 106.017 64.0689 106.484 64.097 106.54C64.2935 106.255 64.5323 106.03 64.8133 105.865C65.1258 105.678 65.4141 105.618 65.6781 105.685C66.0462 105.778 66.2889 105.924 66.4061 106.121C66.5105 106.305 66.5333 106.696 66.4744 107.292C66.4085 107.887 66.2262 108.333 65.9272 108.632C65.6212 108.929 65.2298 109.116 64.7525 109.192C64.8358 109.213 64.9606 109.274 65.1265 109.375C65.2982 109.488 65.4395 109.559 65.5506 109.587C65.9743 109.694 66.3643 109.547 66.7204 109.144C67.122 108.724 67.3813 108.08 67.4983 107.212Z" fill="#A6DEFF"/>
<path d="M64.5701 113.819L64.5909 113.824L64.5947 113.796L64.5322 113.78C64.5449 113.793 64.5576 113.806 64.5701 113.819Z" fill="#9D9A91"/>
<path d="M62.3541 104.042C62.3172 104.101 62.2789 104.171 62.2396 104.249C62.3193 104.191 62.3821 104.152 62.4276 104.134L62.3541 104.042Z" fill="#C0BDB8"/>
</g>
</g>
</g>
</svg>
