<svg width="94" height="129" viewBox="0 0 94 129" fill="none" xmlns="http://www.w3.org/2000/svg">
<mask id="mask0_114_385" style="mask-type:luminance" maskUnits="userSpaceOnUse" x="0" y="0" width="94" height="129">
<path d="M94 0H0V129H94V0Z" fill="white"/>
</mask>
<g mask="url(#mask0_114_385)">
<mask id="mask1_114_385" style="mask-type:luminance" maskUnits="userSpaceOnUse" x="0" y="0" width="94" height="129">
<path d="M0 0H94V129H0V0Z" fill="white"/>
</mask>
<g mask="url(#mask1_114_385)">
<path d="M44.9556 116.81C45.901 116.518 46.7077 116.308 47.3761 116.181C48.4961 115.987 49.1111 115.89 49.2208 115.89C48.6568 116.148 48.1203 116.53 47.6111 117.035C47.384 117.25 46.9138 117.787 46.2011 118.647C46.8121 118.271 47.6973 117.954 48.8566 117.696C50.0706 117.46 50.9518 117.476 51.5003 117.744H51.5238L51.6178 117.793C51.5866 117.783 51.5473 117.766 51.5003 117.744C51.3358 117.96 49.9061 119.115 47.2116 121.211C44.6971 123.168 43.2988 124.587 43.0168 125.468C43.4476 125.114 45.0573 124.388 47.8461 123.291C50.5095 122.259 52.1701 121.469 52.8281 120.921C54.7865 119.298 57.5906 115.901 61.2411 110.73C61.2411 110.708 61.2491 110.687 61.2646 110.665C61.4291 110.45 61.5856 110.225 61.7346 109.988C62.1576 109.021 62.7256 107.87 63.4383 106.538C64.5898 104.398 65.3653 102.737 65.7648 101.555C65.5218 102.222 65.0128 102.904 64.2373 103.603C63.6108 104.173 63.1718 104.5 62.9213 104.586C63.0623 104.124 63.3718 103.479 63.8496 102.651C64.0923 102.211 64.3548 101.749 64.6368 101.265L65.0011 100.136C64.5623 100.233 64.1628 100.475 63.8026 100.862C63.4345 101.26 63.1878 101.528 63.0623 101.668C63.0623 101.679 63.0583 101.679 63.0506 101.668L62.6863 101.716C61.9968 102.716 61.2723 103.705 60.5126 104.683C57.4653 108.51 54.7316 110.946 52.3111 111.988C52.2406 112.031 52.1741 112.058 52.1113 112.069C51.9078 112.155 51.7196 112.23 51.5473 112.295C49.8711 112.993 48.1203 114.137 46.2951 115.729C46.0937 115.91 45.6472 116.271 44.9556 116.81ZM38.0348 85.7847H37.6353C37.7371 85.7096 37.8391 85.6341 37.9408 85.559C37.9566 85.559 37.9643 85.5535 37.9643 85.5428C38.7868 84.9517 39.8483 84.2583 41.1486 83.4627C41.9241 82.9361 42.5743 82.4039 43.0991 81.8663C43.166 81.7976 43.2285 81.7277 43.2871 81.6567L43.2166 81.7534C44.1408 81.1946 46.1816 80.1571 49.3383 78.6413C52.6206 77.0827 55.3503 75.6153 57.5281 74.2392L57.4576 73.739C57.2303 73.8361 56.9876 73.9167 56.7291 73.9809C54.9431 74.5295 53.7995 74.6368 53.2981 74.3034C53.5331 74.0347 54.7473 72.7663 56.9406 70.4982C58.6403 68.7245 59.5411 67.6763 59.6431 67.3538C59.3439 67.6702 58.6156 68.0517 57.4576 68.4984C56.3072 68.9563 55.5045 69.3056 55.0488 69.5465C56.0358 68.6654 57.3206 66.854 58.9028 64.1127C58.7383 64.3385 58.5816 64.4568 58.4328 64.4674C57.2891 65.2843 56.2238 65.7791 55.2368 65.951C55.2291 65.9616 55.2173 65.9671 55.2016 65.9671C55.1076 66.0422 54.9823 66.1177 54.8256 66.1928C54.7706 66.2141 54.7198 66.2302 54.6728 66.2409C53.9678 66.5208 53.3883 66.7572 52.9338 66.9507C52.7616 67.0365 52.6086 67.1065 52.4756 67.1603C53.1806 67.0958 53.5801 67.0742 53.6741 67.0958L53.5331 67.2571C53.3606 67.4935 52.7576 67.8914 51.7236 68.4503L52.1701 68.4178C53.2431 68.2891 53.9053 68.3104 54.1558 68.4826L54.1441 68.2085C54.1598 68.2623 54.1676 68.3213 54.1676 68.3858C54.1676 68.4178 54.1636 68.4503 54.1558 68.4826H54.0736C52.0761 70.4605 49.6753 72.4064 46.8708 74.3198C44.7323 75.7817 42.3471 77.2223 39.7151 78.6413C36.0726 80.6302 33.0763 81.947 30.7263 82.592C30.0526 83.4088 29.6453 83.8978 29.5043 84.059C29.6061 84.1238 29.9821 84.0916 30.6323 83.9626C31.2826 83.8229 31.6468 83.7797 31.7251 83.8336C31.6153 83.8658 31.4038 84.0538 31.0906 84.3979C30.8243 84.6882 30.5736 84.8923 30.3386 85.0107C30.7381 84.9997 31.1453 84.973 31.5606 84.9301C31.0593 86.1878 30.8126 87.1553 30.8203 87.8323C30.8281 88.5959 30.9888 89.0848 31.3021 89.2996C32.2263 89.4502 33.3348 89.5634 34.6273 89.6386C36.2411 89.8534 37.7216 90.4822 39.0688 91.5252L39.2216 91.6378C38.5636 91.6165 36.7071 92.6272 33.6521 94.6696C30.6048 96.7229 28.8658 97.8572 28.4351 98.0719C28.5918 98.1687 30.0173 97.6904 32.7121 96.6365C35.3833 95.6155 36.9263 94.8686 37.3416 94.3954C37.0203 95.1585 36.5231 95.9486 35.8493 96.7658C36.9381 96.4217 37.5218 96.2173 37.6001 96.1528C37.4668 96.5507 36.7971 97.4702 35.5908 98.9108C34.3531 100.34 33.6796 101.141 33.5698 101.313C34.2201 101.173 34.7958 101.044 35.2971 100.926C36.2293 100.701 36.9343 100.33 37.4121 99.8138C37.4356 99.7922 37.4551 99.7702 37.4708 99.749L37.4356 99.8615C37.4121 99.937 37.0203 100.319 36.2606 101.007C35.5163 101.695 35.0896 102.2 34.9798 102.522L35.0386 102.587C35.2031 102.705 36.1743 102.302 37.9526 101.378C39.2293 100.722 40.1458 100.222 40.7021 99.8783C40.5923 100.007 40.3103 100.41 39.8561 101.088C39.3703 101.84 39.0806 102.324 38.9866 102.539C38.6028 103.496 38.0348 104.361 37.2828 105.135C36.8991 105.533 36.5151 105.887 36.1313 106.199L36.3193 106.183C36.4056 106.183 36.9263 106.011 37.8821 105.667C38.8298 105.312 39.5231 105.13 39.9618 105.119C39.9226 105.13 39.4566 105.581 38.5636 106.473C37.6471 107.344 37.1066 107.843 36.9421 107.973C37.2083 107.843 38.1876 107.44 39.8796 106.763C41.5638 106.097 42.5743 105.667 42.9111 105.473C42.5898 105.677 41.6343 106.865 40.0441 109.037C38.7986 110.725 37.8861 111.762 37.3063 112.149C37.5021 112.117 37.8156 112.031 38.2463 111.891C38.3951 111.838 38.5558 111.773 38.7281 111.698C39.5271 111.386 40.0871 111.165 40.4083 111.036C43.0246 109.704 45.2886 108.311 47.1998 106.86H46.7181C46.5378 106.903 46.0326 107.022 45.2023 107.215C44.4426 107.398 43.9568 107.543 43.7453 107.65C44.2936 107.349 45.7663 106.005 48.1633 103.619C50.9518 100.856 53.6506 98.5022 56.2591 96.5562L53.3451 98.0071C50.4231 99.4265 48.5941 100.265 47.8578 100.523C48.7978 99.9963 50.4271 98.8888 52.7458 97.2009C54.2341 96.0941 55.9418 94.8199 57.8688 93.3796C56.9758 93.8417 55.0215 94.519 52.0056 95.411C49.264 96.2282 47.1568 97.0993 45.6841 98.0239L45.5196 97.9265C45.5666 97.9052 45.6018 97.8784 45.6253 97.8459L45.6371 97.8626C46.2873 97.5076 47.2703 96.8303 48.5863 95.8303C49.2836 95.3036 49.9453 94.8041 50.5721 94.3309L52.4873 93.3309C50.1138 94.1803 47.9245 94.8521 45.9191 95.3465C43.5613 95.9057 42.1866 96.2553 41.7948 96.3946C42.5233 96.0831 44.0078 95.2123 46.2481 93.7827C48.6686 92.2021 49.9963 91.3585 50.2313 91.2511L50.2196 91.0415C49.3423 91.1598 47.7011 91.5091 45.2963 92.0896L44.9086 92.1054C44.9478 92.0947 45.0418 92.0141 45.1906 91.8635C45.3393 91.7242 45.5471 91.5197 45.8133 91.2511C46.3461 90.6922 46.6358 90.3536 46.6828 90.2352C46.3538 90.1491 46.0131 90.1172 45.6606 90.1388C45.4491 90.1707 45.1278 90.2297 44.6971 90.3158L44.0861 90.4448C44.6345 89.9179 45.1161 89.4502 45.5313 89.0416C46.3068 88.268 46.7221 87.7516 46.7768 87.4939L46.8356 87.3166L46.7651 87.284C46.0601 87.4453 44.1136 87.9722 40.9253 88.8646L40.4436 89.0742C40.4906 88.9452 40.5806 88.784 40.7138 88.5905C40.7296 88.5798 40.7373 88.5688 40.7373 88.5579C40.9801 88.2247 41.3561 87.8216 41.8653 87.3488C42.7036 86.5642 43.1773 86.0105 43.2871 85.688C42.9111 85.4296 42.1081 85.3922 40.8783 85.5751C39.4213 85.7902 38.4736 85.8598 38.0348 85.7847ZM34.4981 84.5753C34.4981 84.8011 34.5058 85.0646 34.5216 85.3654C34.5528 86.2791 34.6703 87.1553 34.8741 87.9935C34.6078 88.069 34.2591 88.069 33.8283 87.9935C33.2801 87.9077 32.8061 87.7678 32.4066 87.5746C32.4848 87.1015 32.6651 86.3491 32.9471 85.3171C32.9941 85.1342 33.0411 84.9459 33.0881 84.7527C33.5658 84.6988 34.0358 84.6398 34.4981 84.5753ZM47.7873 100.555H47.8108C47.7958 100.556 47.7723 100.566 47.7403 100.587L47.7873 100.555ZM62.6276 15.5926C64.3666 15.0337 65.6278 14.6522 66.4111 14.448C64.6328 14.3403 56.5568 14.2974 42.1826 14.319C42.4333 14.5338 44.8928 15.0121 49.5616 15.7538C54.2773 16.4956 56.7526 16.9474 56.9876 17.1086C56.2121 17.0764 54.4928 17.2535 51.8293 17.6405C48.7193 18.092 46.6788 18.3554 45.7076 18.4309C47.1723 18.6457 48.1595 18.8015 48.6686 18.8982C48.7233 18.8872 48.7821 18.8769 48.8448 18.8663L49.0093 18.9788C48.9593 18.9459 48.8457 18.9192 48.6686 18.8982C47.0078 19.2207 45.8368 19.4252 45.1553 19.5113C46.4478 19.6832 47.6148 19.8444 48.6568 19.995C52.4323 20.511 54.9431 21.1502 56.1886 21.9136C55.4756 22.6124 53.8465 23.1555 51.3006 23.5425C49.9061 23.7573 48.5941 23.8918 47.3643 23.9457V24.0582C49.0718 24.3268 53.2431 25.0205 59.8781 26.1386C66.3248 27.2458 69.9868 27.8908 70.8643 28.0736C70.8878 28.0843 70.9073 28.0895 70.9231 28.0895C70.9153 28.1001 70.9073 28.1059 70.8996 28.1059C70.8681 28.1272 70.8448 28.1649 70.8291 28.2188C65.1461 29.9119 59.322 31.0619 53.3568 31.6692C48.9454 32.1288 44.4569 32.29 39.8913 32.153C39.1158 32.5828 38.2188 33.0618 37.2006 33.5884C37.7018 33.9215 38.7673 34.1418 40.3966 34.2492C42.0886 34.3566 43.2911 34.2224 44.0038 33.8461C43.8941 34.0931 43.2871 34.5343 42.1826 35.1687C41.8084 35.3886 41.4757 35.5766 41.1838 35.733C40.6645 36.012 40.2767 36.189 40.0206 36.2648C40.3653 36.4906 41.4698 36.5173 43.3341 36.3455C45.1201 36.1948 46.1971 36.0178 46.5653 35.8137C46.0326 36.7595 45.3943 37.7003 44.6501 38.6355C43.4281 40.1619 42.0611 41.151 40.5493 41.6025C40.3956 41.6493 40.2389 41.6867 40.0793 41.7151C40.9119 41.578 41.4369 41.5193 41.6538 41.538C41.6381 41.6132 41.5833 41.7206 41.4893 41.8602L41.3601 42.0215C40.8118 42.4297 40.2596 42.8222 39.7033 43.1986C38.7873 43.8316 38.0625 44.197 37.5296 44.2951C37.9286 44.2396 38.7511 44.1003 39.9971 43.8762C41.6968 43.5753 42.8406 43.4566 43.4281 43.5211C43.4828 43.5211 43.5338 43.5266 43.5808 43.5375C42.9306 44.2038 41.7673 45.1281 40.0911 46.3107C38.2816 47.5897 36.7776 48.4821 35.5791 48.9875C36.2293 49.4283 37.8508 49.4551 40.4436 49.0681C43.0363 48.6701 44.3916 48.5089 44.5091 48.5843C44.0468 48.8314 43.0561 49.7292 41.5363 51.2772C40.2831 52.5995 39.4841 53.4218 39.1393 53.7443L39.4213 53.9381C39.5936 53.8953 39.9266 53.9056 40.4201 53.9701C40.9058 54.0346 41.2858 54.1152 41.5598 54.212C41.5128 54.3732 41.2308 54.6957 40.7138 55.1795C40.1968 55.6632 39.7973 55.9751 39.5153 56.115C39.9853 56.4375 40.6238 56.4533 41.4306 56.1631C42.4333 55.819 43.0678 55.6632 43.3341 55.6954C42.8798 55.8783 41.8731 56.6468 40.3143 58.0013C38.9436 59.173 37.9683 59.947 37.3886 60.3233C37.2868 60.3878 37.1966 60.4468 37.1183 60.5007C38.0976 60.6191 38.9396 60.6674 39.6446 60.6458C40.3183 60.6242 40.8626 60.5168 41.2778 60.3233C40.7373 60.8929 39.9343 61.7156 38.8691 62.7905C37.1613 64.5103 36.0373 65.8597 35.4968 66.8378C36.2881 66.7195 37.0753 66.596 37.8586 66.467C38.0308 66.4453 38.2033 66.4186 38.3756 66.3863C39.8326 65.6875 41.6578 64.72 43.8511 63.4838C47.5406 61.624 49.9023 60.5704 50.9363 60.3233C51.2966 60.2372 51.5433 60.2372 51.6766 60.3233C51.7156 60.3878 51.7548 60.4307 51.7941 60.4523C51.8331 60.4523 51.8763 60.4468 51.9233 60.4362C52.5266 60.2966 53.2708 60.0382 54.1558 59.6622C55.4483 59.1033 56.7603 58.4741 58.0921 57.7756C61.6876 55.8835 64.0181 54.7547 65.0833 54.3893C65.0286 54.3571 64.6016 54.3248 63.8026 54.2926C63.7791 54.2816 63.7516 54.2765 63.7203 54.2765C63.7123 54.2871 63.7046 54.2871 63.6968 54.2765C63.4148 54.2765 63.1603 54.2658 62.9331 54.2442C63.1758 54.1368 63.4383 54.0185 63.7203 53.8895C64.3628 53.6098 65.1461 53.277 66.0703 52.89C67.0493 52.4708 67.9346 52.0889 68.7258 51.7448L68.6083 51.3417C67.7466 51.374 67.1043 51.4114 66.6813 51.4546C66.6736 51.4546 66.6578 51.4491 66.6343 51.4385C66.4071 51.4707 66.2583 51.503 66.1878 51.5352L66.2583 51.2933C66.3288 51.2827 66.4111 51.2717 66.5051 51.2611C66.3093 51.0137 66.0468 50.7828 65.7178 50.5677L65.7883 50.3742C65.4671 50.471 65.1383 50.5677 64.8013 50.6645L64.8131 50.8418C64.3823 51.0676 62.3261 51.7287 58.6443 52.8252C55.0881 53.9001 53.2316 54.4377 53.0748 54.4377H52.8868C52.9183 54.4271 52.9691 54.4106 53.0396 54.3893C53.3843 54.2494 54.1911 53.8088 55.4601 53.0671C57.0031 52.1534 57.8766 51.5997 58.0803 51.4062L58.0451 51.2611C57.3245 51.4007 56.9561 51.4762 56.9406 51.4868C57.2303 51.1966 57.4928 50.9657 57.7278 50.7938L57.7396 50.7612C57.4576 50.7825 57.1793 50.8096 56.9053 50.8418C57.2031 50.272 57.3636 49.6218 57.3871 48.8907C57.4028 48.149 57.2813 47.692 57.0228 47.5201C56.8506 47.3911 56.6195 47.2888 56.3296 47.2137C56.1651 47.1708 55.8673 47.1008 55.4366 47.0041C55.4993 46.8212 55.8086 46.2843 56.3648 45.3919C56.9053 44.5318 57.254 43.8329 57.4106 43.2957L57.7513 42.2637V42.2311V42.1182C57.4928 42.1072 56.8308 41.8338 55.7656 41.2962C55.7265 41.2745 55.6873 41.2478 55.6481 41.2155C55.6403 41.2155 55.6246 41.21 55.6011 41.1994C54.5983 40.6834 53.7211 40.1726 52.9691 39.6675C53.0081 39.6353 54.1676 39.2373 56.4471 38.4743C58.6561 37.7109 59.8348 37.2697 59.9838 37.1517C59.8508 36.8937 59.6236 36.3674 59.3023 35.5718L59.2906 35.3944C62.4553 34.8784 65.8511 34.2602 69.4778 33.54C69.5091 33.54 69.5366 33.5342 69.5601 33.5236C69.8421 33.3407 70.9073 32.6744 72.7561 31.5244C73.2103 31.2341 73.6293 30.9865 74.0133 30.7823L76.2458 29.8313C73.0733 30.4224 71.3421 30.6211 71.0523 30.4276C71.2403 30.4276 71.7966 30.1644 72.7208 29.6378C73.1908 29.3688 73.6921 29.0782 74.2248 28.7667C73.7706 28.4548 73.234 28.3742 72.6151 28.5248L72.4741 28.4284C72.7953 28.3316 73.0851 28.1217 73.3436 27.7992C73.5158 27.5735 73.6333 27.3745 73.6961 27.2026C73.3906 26.9981 72.8108 26.8746 71.9571 26.8317C71.1031 26.7885 70.6448 26.7459 70.5823 26.703C71.4833 26.2086 73.1006 25.3592 75.4351 24.1553H75.0356C67.782 24.2198 62.0323 23.8273 57.7866 22.9782C58.7108 22.4944 61.1001 21.8817 64.9541 21.1399C64.7111 20.9786 63.599 20.672 61.6171 20.2205C59.9721 19.8441 58.6953 19.608 57.7866 19.5113C57.5673 19.479 57.3673 19.4574 57.1873 19.4468L57.8218 19.3336C60.5321 18.4519 62.2478 17.9472 62.9683 17.8182C60.4538 17.3234 58.7893 17.0442 57.9746 16.9797H57.6808L57.9746 16.9474L57.9863 16.9632C58.4328 16.8665 59.9798 16.4095 62.6276 15.5926Z" fill="#EAEAEA"/>
<path d="M71.1815 77.6742C71.1423 78.4698 71.1071 79.1738 71.0758 79.7865C70.9035 82.5278 70.3393 85.3658 69.3838 88.3005C67.9111 92.8694 65.6786 97.3412 62.6863 101.716L63.0505 101.668C63.0583 101.679 63.0623 101.679 63.0623 101.668C63.1878 101.528 63.4345 101.26 63.8025 100.862C64.1628 100.475 64.5623 100.233 65.001 100.136L64.6368 101.265C64.3548 101.749 64.0923 102.211 63.8495 102.652C63.3718 103.479 63.0623 104.124 62.9213 104.587C63.1718 104.501 63.6108 104.173 64.2373 103.603C65.0128 102.904 65.5218 102.222 65.7648 101.555C65.3653 102.738 64.5898 104.399 63.4383 106.538C62.7255 107.871 62.1575 109.021 61.7345 109.989C65.667 104.345 68.2598 99.5932 69.513 95.7342C71.1658 90.6064 72.094 86.2204 72.2978 82.5762C72.4465 79.9746 72.2353 78.0238 71.6633 76.7228V76.7067L71.5458 76.8195C71.3498 76.895 71.2285 77.1798 71.1815 77.6742ZM35.0503 102.813C35.0425 102.824 35.0385 102.84 35.0385 102.861C34.4588 104.625 33.5423 106.033 32.289 107.086C31.7328 107.548 30.687 108.172 29.1518 108.957C30.0448 108.935 31.016 108.812 32.0658 108.586C33.1233 108.36 33.985 108.242 34.6508 108.231C34.596 108.231 34.169 108.564 33.37 109.231C32.8923 109.629 32.5435 109.914 32.3243 110.085L32.43 110.327L34.5098 109.747C35.4575 109.51 36.186 109.354 36.6953 109.279C36.8128 109.269 36.9185 109.258 37.0125 109.247L36.7188 109.634C36.523 109.774 35.0698 111.015 32.3595 113.359C31.349 114.23 30.5383 114.821 29.9273 115.133C32.5593 114.401 35.3558 113.369 38.3168 112.037L38.2463 111.891C37.8155 112.031 37.502 112.117 37.3063 112.149C37.1653 112.257 37.0478 112.321 36.9538 112.343L37.1183 112.182C37.1495 112.192 37.2123 112.182 37.3063 112.149C37.886 111.762 38.7985 110.725 40.044 109.037C41.6343 106.866 42.5898 105.678 42.911 105.474C42.5743 105.667 41.5638 106.097 39.8795 106.764C38.1875 107.441 37.2083 107.844 36.942 107.973C37.1065 107.844 37.647 107.344 38.5635 106.473C39.4565 105.581 39.9226 105.13 39.9618 105.119C39.5231 105.13 38.8298 105.312 37.882 105.667C36.9263 106.011 36.4055 106.183 36.3193 106.183L36.1313 106.199C36.515 105.887 36.899 105.533 37.2828 105.135C38.0348 104.361 38.6028 103.496 38.9865 102.539C39.0805 102.324 39.3703 101.84 39.856 101.088C40.3103 100.41 40.5923 100.007 40.702 99.8783C40.1458 100.222 39.2293 100.722 37.9525 101.378C36.1743 102.303 35.203 102.706 35.0385 102.587L35.0503 102.813ZM37.6 96.1531C37.5218 96.2179 36.938 96.4221 35.8493 96.7662C35.246 97.5186 34.4863 98.298 33.5698 99.1043C32.567 99.9963 31.5253 100.787 30.4443 101.474C30.8203 101.486 31.161 101.593 31.4665 101.797C31.1923 102.657 30.8125 103.345 30.3268 103.861L30.4913 104.135C32.379 103.307 33.8793 102.872 34.9915 102.829L34.968 102.539L34.9798 102.522C35.0895 102.2 35.5163 101.695 36.2605 101.007C37.0203 100.319 37.412 99.9373 37.4355 99.8618L37.412 99.8138C36.9343 100.33 36.2293 100.701 35.297 100.926C34.7958 101.044 34.22 101.174 33.5698 101.313C33.6795 101.141 34.353 100.34 35.5908 98.9108C36.797 97.4702 37.4668 96.5511 37.6 96.1531ZM62.7568 62.8714C63.6578 62.2587 64.6878 60.6945 65.847 58.179C66.552 56.6526 67.1318 55.212 67.586 53.8575C65.6043 56.7816 63.8768 59.0875 62.4043 60.7752C61.219 62.1042 60.0007 63.2545 58.75 64.2259L58.6913 64.2582C58.6469 64.3014 58.5996 64.3391 58.5503 64.371C58.5106 64.4065 58.4716 64.4388 58.4328 64.4678C58.5815 64.4571 58.7383 64.3388 58.9028 64.113C57.3205 66.8543 56.0358 68.6658 55.0488 69.5472C55.5045 69.3059 56.3072 68.9567 57.4575 68.499C58.6156 68.0521 59.3439 67.6705 59.643 67.3542C59.5411 67.6767 58.6403 68.7248 56.9405 70.4985C54.7473 72.7667 53.533 74.0354 53.298 74.304C53.7995 74.6375 54.943 74.5298 56.729 73.9815C56.9875 73.917 57.2303 73.8364 57.4575 73.7397C58.2723 73.4817 58.9145 73.2343 59.3845 72.9979C59.4473 72.9657 59.502 72.9334 59.549 72.9012C65.5103 68.6871 68.953 63.9679 69.8773 58.7434L69.5248 58.566C69.1333 59.082 68.5298 59.8131 67.7153 60.759C67.6996 60.7806 67.684 60.7968 67.6683 60.8074C67.6528 60.829 67.6368 60.8451 67.6213 60.8558C66.6658 61.9845 65.9645 62.7585 65.518 63.1778C66.1525 62.5544 66.7988 61.6675 67.4568 60.5172C67.4646 60.4956 67.4765 60.4794 67.492 60.4688C67.7193 60.0711 67.9503 59.6409 68.1853 59.1788L68.0325 58.8885C67.6095 59.4584 67.1395 59.9583 66.6225 60.3882C66.552 60.442 65.2635 61.2696 62.7568 62.8714ZM51.6765 60.3237C51.5433 60.2376 51.2966 60.2376 50.9363 60.3237C49.9023 60.571 47.5405 61.6243 43.851 63.4842C41.6578 64.7203 39.8325 65.6881 38.3755 66.3867C40.0048 66.118 41.6185 65.8062 43.2165 65.4514C43.6708 65.86 43.988 66.2899 44.1683 66.7414C44.278 67.0317 44.3993 67.6067 44.5325 68.4668C44.5718 68.7248 44.6225 68.9883 44.6853 69.2569C44.411 69.3537 44.1525 69.4665 43.9098 69.5955L43.898 69.5794L43.9685 69.8535C38.399 72.7344 33.742 75.6424 29.9978 78.5772C28.4155 79.8027 27.2248 80.8131 26.4258 81.6087C25.9715 82.0708 25.6463 82.4581 25.4505 82.7697L24.8513 84.624C25.2038 84.8714 26.1085 85.0162 27.5655 85.0594C28.388 85.0917 29.2575 85.081 30.174 85.0272C30.2368 85.0272 30.2915 85.0217 30.3385 85.011C30.5735 84.8927 30.8243 84.6885 31.0905 84.3983C31.4038 84.0542 31.6153 83.8662 31.725 83.8339C31.6468 83.7801 31.2825 83.8233 30.6323 83.9629C29.982 84.0919 29.606 84.1242 29.5043 84.0597C29.6453 83.8984 30.0525 83.4092 30.7263 82.5923C28.9795 83.076 27.6008 83.1944 26.5903 82.947L26.4258 82.8342L26.6843 82.0602C32.0658 78.2656 35.4575 75.9004 36.8598 74.9652C40.5023 72.5358 43.193 70.9555 44.932 70.2244C45.0103 70.2031 45.0848 70.176 45.1553 70.1438L44.9908 70.4179C45.4138 71.6757 46.0405 72.9763 46.8708 74.3202C49.6753 72.4068 52.076 70.4608 54.0735 68.4829H54.1558C53.9053 68.311 53.2431 68.2894 52.17 68.4184C51.9978 68.5797 51.2615 68.8754 49.961 69.3053C48.6058 69.7674 47.4818 70.2351 46.5888 70.7082C46.6436 70.6543 47.3878 69.8858 48.8213 68.4023C49.9258 67.2413 50.7286 66.5157 51.23 66.2254C49.8278 66.9456 48.5275 67.467 47.329 67.7895C48.9583 66.5102 50.1685 65.5643 50.9598 64.9515C50.4428 65.1879 49.8633 65.403 49.2208 65.5965C48.8135 65.7255 48.3945 65.8439 47.9635 65.9513C47.423 66.1019 46.8668 66.2525 46.295 66.4028L46.107 66.435C46.1775 66.4028 46.2403 66.3705 46.295 66.3383C47 66.0803 47.5405 65.8384 47.9165 65.6127C48.8723 65.0538 49.4675 64.4194 49.7025 63.7099C49.303 63.8389 48.8448 63.925 48.3278 63.9679C48.2653 63.9679 48.2023 63.9786 48.1398 64.0002C47.803 64.0863 47.3918 64.2527 46.906 64.5C47.0628 64.3604 47.4623 64.1669 48.1045 63.9195C48.175 63.8873 48.2493 63.8496 48.3278 63.8067C48.7193 63.6348 48.9623 63.409 49.0563 63.1294C48.5941 63.1078 47.8225 63.3445 46.7415 63.8389C46.8981 63.7206 47.6308 63.3445 48.9388 62.7102C49.5263 62.4415 50.2235 62.119 51.0303 61.7427C51.6648 61.4631 52.2133 61.1783 52.6753 60.888C51.8998 60.6839 51.4845 60.571 51.4298 60.5494C51.5473 60.5278 51.6686 60.4956 51.794 60.4527C51.7548 60.4311 51.7156 60.3882 51.6765 60.3237ZM46.5653 35.8137C46.197 36.0178 45.12 36.1952 43.334 36.3458C41.4698 36.5177 40.3653 36.4909 40.0205 36.2652C40.2767 36.1894 40.6644 36.012 41.1838 35.733C41.4757 35.5769 41.8084 35.3886 42.1825 35.1687C43.287 34.5343 43.8941 34.0934 44.0038 33.8464C43.291 34.2228 42.0885 34.3569 40.3965 34.2495C38.7673 34.1421 37.7018 33.9216 37.2005 33.5884C38.2188 33.0618 39.1158 32.5832 39.8913 32.1533C37.972 32.0994 36.0413 31.9866 34.0985 31.8147C34.0466 31.8366 33.9958 31.8579 33.9458 31.8792C32.5955 32.4493 31.9845 32.7396 32.1128 32.7499C32.8103 32.8438 33.421 32.9299 33.9458 33.0079C35.4014 33.2221 36.1926 33.3727 36.3193 33.4594C36.1442 33.6419 35.353 33.8893 33.9458 34.2012C33.7782 34.2376 33.602 34.275 33.417 34.314C33.4828 34.326 33.6591 34.3476 33.9458 34.3785C34.1712 34.4053 34.4649 34.4372 34.827 34.4753C34.9445 34.4859 35.0698 34.5075 35.203 34.5398C35.9003 34.6149 36.515 34.7384 37.0478 34.9107L36.9068 35.088C36.703 35.1741 36.2135 35.3244 35.438 35.5395C35.2035 35.6018 34.988 35.6663 34.7918 35.733C34.1756 35.9427 33.7486 36.1736 33.511 36.4264C34.0271 36.4993 34.6889 36.5906 35.4968 36.7005C36.3122 36.8099 36.9977 36.8905 37.553 36.9424C38.1168 37.0063 38.6378 37.0759 39.1158 37.152C39.484 37.2059 39.9108 37.2756 40.3965 37.3617C40.8033 37.4903 41.1948 37.5387 41.5715 37.5068C41.956 37.4855 42.183 37.502 42.253 37.5552H42.2765C42.3235 37.5552 42.3548 37.5658 42.3705 37.5874L42.2648 37.6519C41.92 38.6194 40.33 39.5653 37.4943 40.4899C35.9825 40.9737 34.028 41.5164 31.631 42.1185C31.8503 42.2691 32.1873 42.3765 32.6415 42.441C32.6885 42.441 32.7355 42.4465 32.7825 42.4572H32.806C33.2448 42.5217 33.5188 42.5807 33.6285 42.6345C33.3935 42.7419 33.0958 42.8496 32.7355 42.957C32.383 43.086 31.9758 43.215 31.5135 43.344L30.362 43.6504L30.3738 43.6988C33.3113 44.5266 35.109 45.1662 35.767 45.6177C35.156 46.4991 32.6963 47.3001 28.388 48.0203C24.7063 48.6653 21.902 48.9072 19.975 48.7459C21.526 48.9394 24.5028 49.3264 28.905 49.9069C34.0203 50.6058 36.75 50.9766 37.0948 51.0195C36.429 51.4281 35.767 51.799 35.109 52.1322C34.0123 52.7449 33.229 53.0997 32.759 53.1964C33.0958 53.3038 33.8205 53.4544 34.9328 53.6479C35.7945 53.7985 36.4368 53.8575 36.8598 53.8253C37.0008 53.8359 37.1143 53.8253 37.2005 53.793C37.1848 53.8469 37.173 53.8953 37.1653 53.9382C37.0165 54.3252 36.8128 54.7499 36.5543 55.212C36.1 56.0399 35.6025 56.6739 35.062 57.1148C34.968 57.2009 34.874 57.2706 34.78 57.3244C34.7565 57.3567 34.7213 57.3889 34.6743 57.4212C31.1963 60.8397 26.9623 63.2423 21.9725 64.629C17.7738 65.8116 14.1745 66.0264 11.1743 65.274C11.1273 65.2631 11.0763 65.2473 11.0215 65.2257L10.9863 65.1934L9.99929 64.8709C9.53705 64.6881 9.17679 64.5323 8.91829 64.4033C8.91054 64.4784 8.89879 64.5591 8.88304 64.6452C8.82029 65.0967 8.74604 65.8868 8.65979 67.0155C11.1273 67.6283 15.224 67.9131 20.9503 67.8702C25.893 67.8486 30.742 67.5048 35.4968 66.8382C36.0373 65.86 37.1613 64.5107 38.869 62.7908C39.9343 61.7159 40.7373 60.8935 41.2778 60.3237C40.8625 60.5172 40.3183 60.6246 39.6445 60.6462C38.9395 60.6678 38.0975 60.6194 37.1183 60.501C37.1965 60.4472 37.2868 60.3882 37.3885 60.3237C37.9683 59.9473 38.9435 59.1733 40.3143 58.0017C41.8731 56.6472 42.8798 55.8786 43.334 55.6958C43.0678 55.6635 42.4333 55.8193 41.4305 56.1634C40.6238 56.4537 39.9853 56.4375 39.5153 56.115C39.7973 55.9754 40.1968 55.6635 40.7138 55.1798C41.2308 54.696 41.5128 54.3735 41.5598 54.2123C41.2858 54.1155 40.9058 54.0349 40.42 53.9704C39.9265 53.9059 39.5935 53.8953 39.4213 53.9382L39.1393 53.7447C39.484 53.4222 40.283 52.5998 41.5363 51.2775C43.056 49.7295 44.0468 48.832 44.509 48.5847C44.3915 48.5095 43.0363 48.6708 40.4435 49.0684C37.8508 49.4554 36.2293 49.4286 35.579 48.9878C36.7775 48.4824 38.2815 47.5904 40.091 46.311C41.7673 45.1284 42.9305 44.2041 43.5808 43.5375C43.5338 43.5266 43.4828 43.5214 43.428 43.5214C42.8405 43.4569 41.6968 43.5753 39.997 43.8762C38.7511 44.1003 37.9286 44.2399 37.5295 44.2954C38.0625 44.1974 38.7873 43.832 39.7033 43.1989C40.2595 42.8226 40.8118 42.4304 41.36 42.0218L41.4893 41.8605C41.5833 41.7209 41.6381 41.6132 41.6538 41.538C41.4369 41.5193 40.9119 41.5784 40.0793 41.7154C40.2389 41.687 40.3956 41.6493 40.5493 41.6025C42.0611 41.151 43.428 40.1619 44.65 38.6355C45.3943 37.7003 46.0325 36.7596 46.5653 35.8137ZM76.2576 24.1553C76.2261 24.1553 76.191 24.1498 76.1518 24.1392C75.909 24.1498 75.6701 24.1553 75.4351 24.1553C73.1006 25.3592 71.4833 26.2086 70.5823 26.703C70.6448 26.7459 71.1031 26.7891 71.957 26.832C72.8108 26.8749 73.3905 26.9984 73.696 27.2029C73.6333 27.3748 73.5158 27.5738 73.3435 27.7995C73.085 28.122 72.7953 28.3317 72.474 28.4284L72.6151 28.5252C73.234 28.3746 73.7705 28.4552 74.2248 28.767C73.692 29.0789 73.1908 29.3691 72.7208 29.6378C71.7965 30.1644 71.2403 30.4279 71.0523 30.4279C71.342 30.6214 73.0733 30.4224 76.2458 29.8313L74.0133 30.7827C73.6293 30.9868 73.2103 31.2342 72.756 31.5244C70.9073 32.6748 69.842 33.3411 69.5601 33.5239C71.0483 33.2337 72.5798 32.9166 74.1543 32.5725C82.4028 30.8204 88.2386 28.4823 91.6618 25.5582L91.6383 25.542C90.9883 25.5743 88.1798 25.7891 83.2135 26.187C78.3648 26.574 75.4743 26.7943 74.542 26.8482C75.8268 26.1709 78.823 25.155 83.5308 23.8005C81.4785 23.994 79.054 24.1124 76.2576 24.1553Z" fill="#A2DBC9"/>
<path d="M13.0189 62.3392C14.4524 61.6942 16.3991 61.1298 18.8586 60.6461C20.7151 60.2913 22.3484 59.8398 23.7584 59.2916C25.3956 58.6037 26.7899 58.0338 27.9414 57.5823C29.1949 57.077 30.5929 56.7813 32.1361 56.6955C33.6011 56.62 34.5764 56.76 35.0621 57.1147C35.6024 56.6739 36.0999 56.0398 36.5541 55.212C36.8126 54.7498 37.0164 54.3251 37.1651 53.9381C37.0711 53.9271 36.9694 53.922 36.8596 53.922C36.3896 53.9326 35.7629 54.0078 34.9796 54.1477C32.4416 54.6528 28.2471 55.8892 22.3954 57.8565C13.8491 60.7161 9.43535 62.565 9.15358 63.4035C9.05934 63.7044 8.98109 64.0375 8.91858 64.4032C9.17684 64.5322 9.53734 64.688 9.99934 64.8705L10.9861 65.193L10.9509 65.1772C11.4758 64.8976 11.8204 64.688 11.9849 64.5483L12.2551 64.2903C12.0279 64.2365 11.6601 64.1291 11.1511 63.9678L10.8686 63.9033C11.1899 63.3657 11.9066 62.8446 13.0189 62.3392ZM33.9458 31.8788C33.9957 31.8575 34.0464 31.8365 34.0984 31.8146C34.0476 31.8104 33.9966 31.8049 33.9458 31.7981C27.563 31.2796 21.038 30.1937 14.3701 28.5409L14.3349 28.767L14.4289 28.8476L15.2984 29.4442C24.4949 31.9597 30.2484 33.6367 32.5591 34.4752C32.0501 34.3891 30.5029 34.2385 27.9179 34.0234C25.5131 33.8512 22.5246 33.4377 18.9526 32.7821C20.8719 34.0934 24.8904 35.2115 31.0083 36.1361C31.9091 36.2435 32.7434 36.3402 33.5109 36.4263C33.7487 36.1735 34.1757 35.9426 34.7916 35.733C34.9881 35.6662 35.2033 35.6017 35.4379 35.5395C36.2134 35.3244 36.7029 35.1738 36.9066 35.088L37.0476 34.9103C36.5151 34.7381 35.9001 34.6145 35.2029 34.5394C35.0699 34.5071 34.9446 34.4859 34.8271 34.4752C34.465 34.4372 34.1712 34.4049 33.9458 34.3781C33.6589 34.3472 33.4827 34.3259 33.4171 34.314C33.602 34.2749 33.7783 34.2375 33.9458 34.2011C35.353 33.8892 36.1443 33.6416 36.3191 33.459C36.1924 33.3719 35.4012 33.2217 33.9458 33.0075C33.4211 32.9295 32.8101 32.8437 32.1126 32.7498C31.9843 32.7395 32.5953 32.4489 33.9458 31.8788ZM78.7484 41.7634C78.6856 41.6989 78.6309 41.6183 78.5841 41.5215C78.4196 41.328 78.2354 41.1668 78.0316 41.0378C76.1753 39.7691 73.5549 39.0812 70.1709 38.9738C66.2779 38.8554 61.4604 39.5117 55.7184 40.9413L55.6479 41.2155C55.6871 41.2477 55.7264 41.2745 55.7654 41.2961C56.8306 41.8337 57.4928 42.1072 57.7511 42.1181C57.7591 42.1288 57.7706 42.1346 57.7866 42.1346L57.7511 42.2313L57.7983 42.2636C60.7358 41.597 63.6184 41.1184 66.4461 40.8281C72.0079 40.237 75.7679 40.6082 77.7261 41.9411C77.9219 42.0701 78.0356 42.1614 78.0671 42.2152C78.1061 42.2581 78.1491 42.3658 78.1961 42.5377L78.5134 42.489L78.7484 41.7634Z" fill="#154D40"/>
<path d="M54.5555 63.468C53.9443 63.468 53.4588 63.4142 53.0985 63.3068C52.5893 63.9518 51.8763 64.5 50.9598 64.9515C50.1688 65.5643 48.9583 66.5102 47.3293 67.7895C48.5276 67.467 49.8281 66.9456 51.2301 66.2254C50.7288 66.5157 49.926 67.2413 48.8213 68.4023C47.388 69.8858 46.6438 70.6543 46.5888 70.7082C47.4818 70.2351 48.6058 69.7674 49.9611 69.3053C51.2616 68.8754 51.9978 68.5797 52.1701 68.4184C52.0841 68.4294 51.9978 68.44 51.9118 68.4507H51.7236C52.7576 67.8918 53.3608 67.4938 53.5331 67.2574L53.6743 67.0962C53.5801 67.0746 53.1806 67.0962 52.4756 67.1607C52.6088 67.1068 52.7616 67.0368 52.9338 66.951C53.3883 66.7575 53.9681 66.5212 54.673 66.2415V66.1609L54.5085 66.048C54.5788 66.048 54.6456 66.0426 54.7081 66.0319C54.8648 65.6556 55.1391 65.2524 55.5306 64.8225C56.0711 64.242 56.4943 63.667 56.7998 63.0972C56.2593 63.3768 55.5111 63.5003 54.5555 63.468ZM49.0563 63.1294C48.9623 63.409 48.7196 63.6348 48.328 63.8067C48.2496 63.8496 48.1751 63.8873 48.1048 63.9195C47.4623 64.1669 47.0628 64.3604 46.9061 64.5C47.3918 64.2527 47.8031 64.0863 48.1398 64.0002C48.2026 63.9786 48.2653 63.9679 48.328 63.9679C48.8448 63.925 49.3031 63.8389 49.7026 63.7099C49.4676 64.4194 48.8723 65.0538 47.9168 65.6127C47.5406 65.8384 47.0001 66.0803 46.2951 66.3383C46.2403 66.3705 46.1776 66.4028 46.1073 66.435L46.2951 66.4028C46.8668 66.2525 47.4231 66.1019 47.9636 65.9513C48.3946 65.8439 48.8136 65.7255 49.221 65.5965C49.8633 65.403 50.443 65.1879 50.9598 64.9515C51.4456 64.5645 51.7706 64.2959 51.9351 64.1453C52.3268 63.8334 52.6793 63.5487 52.9926 63.2907C52.9533 63.28 52.9183 63.2691 52.8868 63.2584L53.2043 62.8875C53.3531 62.8337 53.498 62.7802 53.6388 62.7263C54.1088 62.5434 54.5123 62.3932 54.8493 62.2748C54.9588 62.2103 55.0568 62.0113 55.1431 61.6782C54.9628 61.5492 54.3243 61.3341 53.2276 61.0332C53.0241 60.9903 52.8398 60.9419 52.6755 60.888C52.2133 61.1783 51.6648 61.4631 51.0306 61.7427C50.2236 62.119 49.5263 62.4415 48.9388 62.7102C47.6308 63.3445 46.8983 63.7206 46.7416 63.8389C47.8226 63.3445 48.5943 63.1078 49.0563 63.1294ZM79.0423 42.2959C78.9563 42.1024 78.8583 41.925 78.7486 41.7638L78.5136 42.4894C78.4746 42.5646 78.4276 42.64 78.3726 42.7152C78.2473 42.9516 78.0593 43.2096 77.8086 43.4892V43.5214C76.5083 45.8973 72.5016 48.1815 65.7885 50.3745L65.718 50.568C66.0468 50.7832 66.3093 51.0141 66.5051 51.2614C66.5366 51.2614 66.5718 51.2508 66.611 51.2292C68.303 50.9283 70.3826 50.2349 72.8501 49.149C76.5631 47.5472 78.7136 45.8273 79.301 43.989C79.4576 43.5053 79.3713 42.9409 79.0423 42.2959Z" fill="#33997A"/>
</g>
</g>
</svg>
